<mxfile host="Electron" modified="2024-06-27T11:59:12.133Z" agent="Mozilla/5.0 (Windows NT 10.0; Win64; x64) AppleWebKit/537.36 (KHTML, like Gecko) draw.io/21.6.8 Chrome/114.0.5735.289 Electron/25.5.0 Safari/537.36" etag="65YBXwqavFt2q5S5sur-" version="21.6.8" type="device" pages="2">
  <diagram name="Seite-1" id="BihaI_O2vWQv7b-J20oE">
    <mxGraphModel dx="2074" dy="2423" grid="1" gridSize="10" guides="1" tooltips="1" connect="1" arrows="1" fold="1" page="1" pageScale="1" pageWidth="827" pageHeight="1169" math="0" shadow="0">
      <root>
        <mxCell id="0" />
        <mxCell id="1" parent="0" />
        <mxCell id="wAYI1A4frrbEOui3LJji-50" value="&lt;b&gt;Part of group X&lt;/b&gt;" style="rounded=0;whiteSpace=wrap;html=1;fillStyle=auto;strokeColor=none;fontFamily=Helvetica;fontSize=12;fontColor=#000000;fillColor=#F2F2F2;gradientDirection=half;labelPosition=center;verticalLabelPosition=middle;align=left;verticalAlign=top;" parent="1" vertex="1">
          <mxGeometry x="340" y="-700" width="190" height="70" as="geometry" />
        </mxCell>
        <mxCell id="wAYI1A4frrbEOui3LJji-9" value="&lt;font style=&quot;font-size: 14px;&quot;&gt;:JohnDoe&lt;/font&gt;" style="verticalLabelPosition=middle;verticalAlign=middle;html=1;shape=mxgraph.basic.rect;fillColor2=none;strokeWidth=1;size=14.35;indent=5;fillStyle=auto;strokeColor=#9e0e59;fontFamily=Helvetica;fontSize=14;fontColor=default;fillColor=default;gradientDirection=half;topLeftStyle=rounded;topRightStyle=rounded;bottom=0;labelPosition=center;align=center;" parent="1" vertex="1">
          <mxGeometry x="700" y="-1040" width="170" height="20" as="geometry" />
        </mxCell>
        <mxCell id="wAYI1A4frrbEOui3LJji-12" value="ont:Person" style="verticalLabelPosition=middle;verticalAlign=middle;html=1;shape=mxgraph.basic.rect;fillColor2=none;strokeWidth=1;size=20;indent=5;fillStyle=auto;strokeColor=#9e0e59;fontFamily=Helvetica;fontSize=14;fontColor=#FFFFFF;fillColor=#de147e;gradientDirection=half;top=0;bottomRightStyle=rounded;bottomLeftStyle=rounded;labelPosition=center;align=center;" parent="1" vertex="1">
          <mxGeometry x="700" y="-1020" width="170" height="20" as="geometry" />
        </mxCell>
        <mxCell id="wAYI1A4frrbEOui3LJji-13" value="&lt;b&gt;A-box elements&lt;/b&gt;" style="text;html=1;strokeColor=none;fillColor=none;align=left;verticalAlign=middle;whiteSpace=wrap;rounded=0;fontSize=24;fontFamily=Helvetica;fontColor=default;" parent="1" vertex="1">
          <mxGeometry x="700" y="-1120" width="235" height="30" as="geometry" />
        </mxCell>
        <mxCell id="wAYI1A4frrbEOui3LJji-15" value="&lt;font style=&quot;font-size: 14px;&quot;&gt;:JohnDoe&lt;/font&gt;" style="verticalLabelPosition=middle;verticalAlign=middle;html=1;shape=mxgraph.basic.rect;fillColor2=none;strokeWidth=1;size=14.35;indent=5;fillStyle=auto;strokeColor=#9e0e59;fontFamily=Helvetica;fontSize=14;fontColor=default;fillColor=default;gradientDirection=half;topLeftStyle=rounded;topRightStyle=rounded;bottom=0;labelPosition=center;align=center;" parent="1" vertex="1">
          <mxGeometry x="700" y="-960" width="170" height="20" as="geometry" />
        </mxCell>
        <mxCell id="wAYI1A4frrbEOui3LJji-16" value="ont2:Architect" style="verticalLabelPosition=middle;verticalAlign=middle;html=1;shape=mxgraph.basic.rect;fillColor2=none;strokeWidth=1;size=20;indent=5;fillStyle=auto;strokeColor=#9e0e59;fontFamily=Helvetica;fontSize=14;fontColor=#FFFFFF;fillColor=#002060;gradientDirection=half;top=0;bottomRightStyle=rounded;bottomLeftStyle=rounded;labelPosition=center;align=center;" parent="1" vertex="1">
          <mxGeometry x="700" y="-920" width="170" height="20" as="geometry" />
        </mxCell>
        <mxCell id="wAYI1A4frrbEOui3LJji-17" value="ont:Person" style="verticalLabelPosition=middle;verticalAlign=middle;html=1;shape=mxgraph.basic.rect;fillColor2=none;strokeWidth=1;size=20;indent=5;fillStyle=auto;strokeColor=#9e0e59;fontFamily=Helvetica;fontSize=14;fontColor=#FFFFFF;fillColor=#de147e;gradientDirection=half;top=0;bottomRightStyle=default;bottomLeftStyle=default;labelPosition=center;align=center;bottom=0;" parent="1" vertex="1">
          <mxGeometry x="700" y="-940" width="170" height="20" as="geometry" />
        </mxCell>
        <mxCell id="wAYI1A4frrbEOui3LJji-18" value="&quot;JohnDoe&quot;" style="verticalLabelPosition=middle;verticalAlign=middle;html=1;shape=mxgraph.basic.rect;fillColor2=none;strokeWidth=1;size=20;indent=5;fillStyle=auto;strokeColor=#e2318e;fontFamily=Helvetica;fontSize=14;fontColor=#de167f;fillColor=#ffffff;gradientDirection=half;top=1;bottomRightStyle=default;bottomLeftStyle=default;labelPosition=center;align=center;bottom=1;" parent="1" vertex="1">
          <mxGeometry x="700" y="-860" width="170" height="20" as="geometry" />
        </mxCell>
        <mxCell id="wAYI1A4frrbEOui3LJji-20" value="Box for an instance with one rdf:type" style="rounded=0;whiteSpace=wrap;html=1;fillStyle=auto;strokeColor=none;fontFamily=Helvetica;fontSize=14;fontColor=default;fillColor=none;gradientDirection=half;align=left;" parent="1" vertex="1">
          <mxGeometry x="900" y="-1030" width="240" height="20" as="geometry" />
        </mxCell>
        <mxCell id="wAYI1A4frrbEOui3LJji-21" value="Box for an instance with two rdf:types" style="rounded=0;whiteSpace=wrap;html=1;fillStyle=auto;strokeColor=none;fontFamily=Helvetica;fontSize=14;fontColor=default;fillColor=none;gradientDirection=half;align=left;" parent="1" vertex="1">
          <mxGeometry x="900" y="-940" width="240" height="20" as="geometry" />
        </mxCell>
        <mxCell id="wAYI1A4frrbEOui3LJji-22" value="Box for a literal" style="rounded=0;whiteSpace=wrap;html=1;fillStyle=auto;strokeColor=none;fontFamily=Helvetica;fontSize=14;fontColor=default;fillColor=none;gradientDirection=half;align=left;" parent="1" vertex="1">
          <mxGeometry x="900" y="-860" width="240" height="20" as="geometry" />
        </mxCell>
        <mxCell id="wAYI1A4frrbEOui3LJji-24" value="&lt;b style=&quot;&quot;&gt;Design rules&lt;br&gt;&lt;br&gt;&lt;/b&gt;" style="rounded=0;whiteSpace=wrap;html=1;fillStyle=auto;strokeColor=none;fontFamily=Helvetica;fontSize=24;fontColor=default;fillColor=none;gradientDirection=half;align=left;verticalAlign=top;" parent="1" vertex="1">
          <mxGeometry x="700" y="-800" width="310" height="40" as="geometry" />
        </mxCell>
        <mxCell id="wAYI1A4frrbEOui3LJji-25" value="&lt;ol&gt;&lt;li&gt;&lt;span style=&quot;background-color: initial;&quot;&gt;An ontology has a primary color and a secondary color. Primary color is used or&amp;nbsp;&lt;/span&gt;&lt;span style=&quot;background-color: initial; color: rgb(222, 20, 126); font-weight: bold;&quot;&gt;shape fill &lt;/span&gt;&lt;span style=&quot;background-color: initial;&quot;&gt;and secondary color for&amp;nbsp; &lt;font color=&quot;#9e0e59&quot;&gt;&lt;b&gt;s&lt;/b&gt;&lt;/font&gt;&lt;/span&gt;&lt;font color=&quot;#9e0e59&quot;&gt;&lt;span style=&quot;background-color: initial; font-weight: bold;&quot;&gt;h&lt;/span&gt;&lt;span style=&quot;background-color: initial; font-weight: bold;&quot;&gt;ape&lt;/span&gt;&lt;/font&gt;&lt;span style=&quot;background-color: initial; color: rgb(158, 14, 89); font-weight: bold;&quot;&gt; outline&lt;/span&gt;&lt;span style=&quot;background-color: initial;&quot;&gt;. The primary color is always a little brighter than the secondary color.&lt;/span&gt;&lt;/li&gt;&lt;li&gt;&lt;span style=&quot;background-color: initial;&quot;&gt;Boxes for literals have colorless shape fill and a primary color &lt;b style=&quot;&quot;&gt;&lt;font color=&quot;#de147e&quot;&gt;shape outline&lt;/font&gt;.&lt;/b&gt;&lt;/span&gt;&lt;/li&gt;&lt;li&gt;Use multiple colors sets for multiple ontologies.&lt;/li&gt;&lt;li&gt;t-box text ist always white. A-box text is always black&lt;/li&gt;&lt;li&gt;rdfs:Class boxes have rounded edges. rdfs:Literals boxes don&#39;t.&lt;/li&gt;&lt;/ol&gt;" style="rounded=0;whiteSpace=wrap;html=1;fillStyle=auto;strokeColor=none;fontFamily=Helvetica;fontSize=14;fontColor=default;fillColor=none;gradientDirection=half;align=left;verticalAlign=top;" parent="1" vertex="1">
          <mxGeometry x="680" y="-760" width="440" height="180" as="geometry" />
        </mxCell>
        <mxCell id="wAYI1A4frrbEOui3LJji-26" value="&lt;b&gt;T-box elements&lt;/b&gt;" style="text;html=1;strokeColor=none;fillColor=none;align=left;verticalAlign=middle;whiteSpace=wrap;rounded=0;fontSize=24;fontFamily=Helvetica;fontColor=default;" parent="1" vertex="1">
          <mxGeometry x="10" y="-1120" width="235" height="30" as="geometry" />
        </mxCell>
        <mxCell id="wAYI1A4frrbEOui3LJji-27" value="" style="endArrow=block;html=1;rounded=0;fontFamily=Helvetica;fontSize=16;fontColor=default;startSize=8;endSize=8;curved=1;endFill=1;entryX=0;entryY=0.5;entryDx=0;entryDy=0;exitX=1;exitY=0.5;exitDx=0;exitDy=0;" parent="1" source="wAYI1A4frrbEOui3LJji-61" target="wAYI1A4frrbEOui3LJji-62" edge="1">
          <mxGeometry width="50" height="50" relative="1" as="geometry">
            <mxPoint x="200" y="-430" as="sourcePoint" />
            <mxPoint x="260" y="-430" as="targetPoint" />
          </mxGeometry>
        </mxCell>
        <mxCell id="wAYI1A4frrbEOui3LJji-28" value="" style="endArrow=block;html=1;rounded=0;fontFamily=Helvetica;fontSize=16;fontColor=default;startSize=8;endSize=8;endFill=1;dashed=1;edgeStyle=orthogonalEdgeStyle;" parent="1" edge="1">
          <mxGeometry width="50" height="50" relative="1" as="geometry">
            <mxPoint x="240" y="-1065.06" as="sourcePoint" />
            <mxPoint x="320" y="-1055" as="targetPoint" />
            <Array as="points">
              <mxPoint x="280" y="-1065" />
              <mxPoint x="280" y="-1055" />
            </Array>
          </mxGeometry>
        </mxCell>
        <mxCell id="wAYI1A4frrbEOui3LJji-29" value="" style="endArrow=block;html=1;rounded=0;fontFamily=Helvetica;fontSize=16;fontColor=default;startSize=8;endSize=8;curved=1;endFill=1;fixDash=0;dashed=1; dotted =1; dashPattern=1 1;dashPattern=1 2;" parent="1" edge="1">
          <mxGeometry width="50" height="50" relative="1" as="geometry">
            <mxPoint x="10" y="-1020.23" as="sourcePoint" />
            <mxPoint x="70" y="-1020" as="targetPoint" />
          </mxGeometry>
        </mxCell>
        <mxCell id="wAYI1A4frrbEOui3LJji-30" value="rdfs:subClassOf" style="rounded=0;whiteSpace=wrap;html=1;fillStyle=auto;strokeColor=none;fontFamily=Helvetica;fontSize=14;fontColor=default;fillColor=none;gradientDirection=half;align=left;" parent="1" vertex="1">
          <mxGeometry x="80" y="-1070" width="150" height="20" as="geometry" />
        </mxCell>
        <mxCell id="wAYI1A4frrbEOui3LJji-31" value="owl:ObjectProperty" style="rounded=0;whiteSpace=wrap;html=1;fillStyle=auto;strokeColor=none;fontFamily=Helvetica;fontSize=14;fontColor=default;fillColor=none;gradientDirection=half;align=left;" parent="1" vertex="1">
          <mxGeometry x="80" y="-1050" width="160" height="20" as="geometry" />
        </mxCell>
        <mxCell id="wAYI1A4frrbEOui3LJji-32" value="owl:DatatypeProperty" style="rounded=0;whiteSpace=wrap;html=1;fillStyle=auto;strokeColor=none;fontFamily=Helvetica;fontSize=14;fontColor=default;fillColor=none;gradientDirection=half;align=left;" parent="1" vertex="1">
          <mxGeometry x="80" y="-1030" width="150" height="20" as="geometry" />
        </mxCell>
        <mxCell id="wAYI1A4frrbEOui3LJji-33" value="&lt;font style=&quot;font-size: 12px;&quot;&gt;Class&lt;/font&gt;" style="rounded=1;whiteSpace=wrap;html=1;fillStyle=auto;strokeColor=#A6A6A6;fontFamily=Helvetica;fontSize=12;fontColor=#FFFFFF;fillColor=#BFBFBF;gradientDirection=half;" parent="1" vertex="1">
          <mxGeometry x="10" y="-1000" width="60" height="20" as="geometry" />
        </mxCell>
        <mxCell id="wAYI1A4frrbEOui3LJji-35" value="Literal" style="rounded=0;whiteSpace=wrap;html=1;fillStyle=auto;strokeColor=#A6A6A6;fontFamily=Helvetica;fontSize=12;fontColor=#A6A6A6;fillColor=#FFFFFF;gradientDirection=half;" parent="1" vertex="1">
          <mxGeometry x="10" y="-970" width="60" height="20" as="geometry" />
        </mxCell>
        <mxCell id="wAYI1A4frrbEOui3LJji-36" value="Alternative line options" style="rounded=0;whiteSpace=wrap;html=1;fillStyle=auto;strokeColor=none;fontFamily=Helvetica;fontSize=14;fontColor=default;fillColor=none;gradientDirection=half;align=left;" parent="1" vertex="1">
          <mxGeometry x="330" y="-1050" width="160" height="20" as="geometry" />
        </mxCell>
        <mxCell id="wAYI1A4frrbEOui3LJji-37" value="" style="endArrow=block;html=1;rounded=0;fontFamily=Helvetica;fontSize=16;fontColor=default;endFill=1;edgeStyle=orthogonalEdgeStyle;curved=1;" parent="1" edge="1">
          <mxGeometry width="50" height="50" relative="1" as="geometry">
            <mxPoint x="240" y="-1040" as="sourcePoint" />
            <mxPoint x="320" y="-1030" as="targetPoint" />
            <Array as="points">
              <mxPoint x="280" y="-1040" />
              <mxPoint x="280" y="-1030" />
            </Array>
          </mxGeometry>
        </mxCell>
        <mxCell id="wAYI1A4frrbEOui3LJji-38" value="rdfs:Class" style="rounded=0;whiteSpace=wrap;html=1;fillStyle=auto;strokeColor=none;fontFamily=Helvetica;fontSize=14;fontColor=default;fillColor=none;gradientDirection=half;align=left;" parent="1" vertex="1">
          <mxGeometry x="80" y="-1000" width="150" height="20" as="geometry" />
        </mxCell>
        <mxCell id="wAYI1A4frrbEOui3LJji-39" value="rdfs:Literal" style="rounded=0;whiteSpace=wrap;html=1;fillStyle=auto;strokeColor=none;fontFamily=Helvetica;fontSize=14;fontColor=default;fillColor=none;gradientDirection=half;align=left;" parent="1" vertex="1">
          <mxGeometry x="80" y="-970" width="150" height="20" as="geometry" />
        </mxCell>
        <mxCell id="wAYI1A4frrbEOui3LJji-40" value="&lt;b&gt;Box for grouping&lt;/b&gt;" style="text;html=1;strokeColor=none;fillColor=none;align=left;verticalAlign=middle;whiteSpace=wrap;rounded=0;fontSize=24;fontFamily=Helvetica;fontColor=default;" parent="1" vertex="1">
          <mxGeometry x="10" y="-930" width="235" height="30" as="geometry" />
        </mxCell>
        <mxCell id="wAYI1A4frrbEOui3LJji-41" value="Header" style="rounded=0;whiteSpace=wrap;html=1;fillStyle=auto;strokeColor=none;fontFamily=Helvetica;fontSize=12;fontColor=#000000;fillColor=#F2F2F2;gradientDirection=half;labelPosition=center;verticalLabelPosition=middle;align=left;verticalAlign=top;" parent="1" vertex="1">
          <mxGeometry x="10" y="-890" width="190" height="140" as="geometry" />
        </mxCell>
        <mxCell id="wAYI1A4frrbEOui3LJji-46" value="&lt;b&gt;Example&lt;/b&gt;" style="text;html=1;strokeColor=none;fillColor=none;align=left;verticalAlign=middle;whiteSpace=wrap;rounded=0;fontSize=24;fontFamily=Helvetica;fontColor=default;" parent="1" vertex="1">
          <mxGeometry x="10" y="-740" width="235" height="30" as="geometry" />
        </mxCell>
        <mxCell id="wAYI1A4frrbEOui3LJji-48" value="ont:Subject" style="rounded=1;whiteSpace=wrap;html=1;fillStyle=auto;strokeColor=#9e0e59;fontFamily=Helvetica;fontSize=14;fontColor=#FFFFFF;fillColor=#de147e;gradientDirection=half;strokeWidth=1;" parent="1" vertex="1">
          <mxGeometry x="10" y="-670" width="170" height="20" as="geometry" />
        </mxCell>
        <mxCell id="wAYI1A4frrbEOui3LJji-49" value="ont:Object" style="rounded=1;whiteSpace=wrap;html=1;fillStyle=auto;strokeColor=#9e0e59;fontFamily=Helvetica;fontSize=14;fontColor=#FFFFFF;fillColor=#de147e;gradientDirection=half;strokeWidth=1;" parent="1" vertex="1">
          <mxGeometry x="350" y="-670" width="170" height="20" as="geometry" />
        </mxCell>
        <mxCell id="wAYI1A4frrbEOui3LJji-51" value="" style="endArrow=block;html=1;rounded=0;fontFamily=Helvetica;fontSize=16;fontColor=default;startSize=8;endSize=8;curved=1;endFill=1;dashed=1;" parent="1" edge="1">
          <mxGeometry width="50" height="50" relative="1" as="geometry">
            <mxPoint x="10" y="-1040.29" as="sourcePoint" />
            <mxPoint x="70" y="-1040.29" as="targetPoint" />
          </mxGeometry>
        </mxCell>
        <mxCell id="wAYI1A4frrbEOui3LJji-52" value="" style="endArrow=block;html=1;rounded=0;fontFamily=Helvetica;fontSize=16;fontColor=default;startSize=8;endSize=8;curved=1;endFill=1;dashed=1;exitX=1;exitY=0.5;exitDx=0;exitDy=0;entryX=0;entryY=0.5;entryDx=0;entryDy=0;" parent="1" source="wAYI1A4frrbEOui3LJji-64" target="wAYI1A4frrbEOui3LJji-65" edge="1">
          <mxGeometry width="50" height="50" relative="1" as="geometry">
            <mxPoint x="170" y="-280" as="sourcePoint" />
            <mxPoint x="340" y="-280" as="targetPoint" />
          </mxGeometry>
        </mxCell>
        <mxCell id="wAYI1A4frrbEOui3LJji-54" value="ont:Predicate" style="rounded=0;whiteSpace=wrap;html=1;fillStyle=auto;strokeColor=none;fontFamily=Helvetica;fontSize=14;fontColor=default;fillColor=none;gradientDirection=half;align=left;" parent="1" vertex="1">
          <mxGeometry x="220" y="-650" width="90" height="20" as="geometry" />
        </mxCell>
        <mxCell id="wAYI1A4frrbEOui3LJji-55" value="&lt;b&gt;Alignment&lt;/b&gt;" style="text;html=1;strokeColor=none;fillColor=none;align=left;verticalAlign=middle;whiteSpace=wrap;rounded=0;fontSize=24;fontFamily=Helvetica;fontColor=default;" parent="1" vertex="1">
          <mxGeometry x="10" y="-560" width="235" height="30" as="geometry" />
        </mxCell>
        <mxCell id="wAYI1A4frrbEOui3LJji-56" value="Same as relationship&lt;br&gt;ont:Person&amp;nbsp;≡&amp;nbsp;ont2:Person" style="rounded=0;whiteSpace=wrap;html=1;fillStyle=auto;strokeColor=none;fontFamily=Helvetica;fontSize=14;fontColor=default;fillColor=none;gradientDirection=half;align=left;" parent="1" vertex="1">
          <mxGeometry x="10" y="-520" width="180" height="40" as="geometry" />
        </mxCell>
        <mxCell id="wAYI1A4frrbEOui3LJji-57" value="ont:Person" style="rounded=1;whiteSpace=wrap;html=1;fillStyle=auto;strokeColor=#9e0e59;fontFamily=Helvetica;fontSize=14;fontColor=#FFFFFF;fillColor=#de147e;gradientDirection=half;strokeWidth=1;" parent="1" vertex="1">
          <mxGeometry x="10" y="-470" width="170" height="20" as="geometry" />
        </mxCell>
        <mxCell id="wAYI1A4frrbEOui3LJji-58" value="ont2:Person" style="rounded=1;whiteSpace=wrap;html=1;fillStyle=auto;strokeColor=#000818;fontFamily=Helvetica;fontSize=14;fontColor=#FFFFFF;fillColor=#002060;gradientDirection=half;strokeWidth=1;" parent="1" vertex="1">
          <mxGeometry x="350" y="-470" width="170" height="20" as="geometry" />
        </mxCell>
        <mxCell id="wAYI1A4frrbEOui3LJji-59" value="" style="endArrow=none;html=1;rounded=0;fontFamily=Helvetica;fontSize=12;fontColor=#FFFFFF;curved=1;shape=link;entryX=0;entryY=0.5;entryDx=0;entryDy=0;exitX=1;exitY=0.5;exitDx=0;exitDy=0;" parent="1" source="wAYI1A4frrbEOui3LJji-57" target="wAYI1A4frrbEOui3LJji-58" edge="1">
          <mxGeometry width="50" height="50" relative="1" as="geometry">
            <mxPoint x="240" y="-460" as="sourcePoint" />
            <mxPoint x="290" y="-510" as="targetPoint" />
          </mxGeometry>
        </mxCell>
        <mxCell id="wAYI1A4frrbEOui3LJji-60" value="Subclass relationship&lt;br&gt;ont:Person&amp;nbsp;&amp;nbsp;&lt;span style=&quot;font-size: 8pt; font-family: Calibri;&quot;&gt;⊑&lt;/span&gt;&lt;span style=&quot;font-size: 8pt; font-family: Calibri;&quot;&gt;&amp;nbsp;&lt;/span&gt;&amp;nbsp;ont2:Person" style="rounded=0;whiteSpace=wrap;html=1;fillStyle=auto;strokeColor=none;fontFamily=Helvetica;fontSize=14;fontColor=default;fillColor=none;gradientDirection=half;align=left;" parent="1" vertex="1">
          <mxGeometry x="10" y="-430" width="180" height="40" as="geometry" />
        </mxCell>
        <mxCell id="wAYI1A4frrbEOui3LJji-61" value="ont:Architect" style="rounded=1;whiteSpace=wrap;html=1;fillStyle=auto;strokeColor=#9e0e59;fontFamily=Helvetica;fontSize=14;fontColor=#FFFFFF;fillColor=#de147e;gradientDirection=half;strokeWidth=1;" parent="1" vertex="1">
          <mxGeometry x="10" y="-380" width="170" height="20" as="geometry" />
        </mxCell>
        <mxCell id="wAYI1A4frrbEOui3LJji-62" value="ont2:Employee" style="rounded=1;whiteSpace=wrap;html=1;fillStyle=auto;strokeColor=#000818;fontFamily=Helvetica;fontSize=14;fontColor=#FFFFFF;fillColor=#002060;gradientDirection=half;strokeWidth=1;" parent="1" vertex="1">
          <mxGeometry x="350" y="-380" width="170" height="20" as="geometry" />
        </mxCell>
        <mxCell id="wAYI1A4frrbEOui3LJji-63" value="&lt;b&gt;Property chain axioms&lt;/b&gt;" style="text;html=1;strokeColor=none;fillColor=none;align=left;verticalAlign=middle;whiteSpace=wrap;rounded=0;fontSize=24;fontFamily=Helvetica;fontColor=default;" parent="1" vertex="1">
          <mxGeometry x="10" y="-340" width="270" height="30" as="geometry" />
        </mxCell>
        <mxCell id="wAYI1A4frrbEOui3LJji-64" value="ont:Class1" style="rounded=1;whiteSpace=wrap;html=1;fillStyle=auto;strokeColor=#9e0e59;fontFamily=Helvetica;fontSize=14;fontColor=#FFFFFF;fillColor=#de147e;gradientDirection=half;strokeWidth=1;" parent="1" vertex="1">
          <mxGeometry x="10" y="-250" width="170" height="20" as="geometry" />
        </mxCell>
        <mxCell id="wAYI1A4frrbEOui3LJji-65" value="ont:Class2" style="rounded=1;whiteSpace=wrap;html=1;fillStyle=auto;strokeColor=#9e0e59;fontFamily=Helvetica;fontSize=14;fontColor=#FFFFFF;fillColor=#de147e;gradientDirection=half;strokeWidth=1;" parent="1" vertex="1">
          <mxGeometry x="310" y="-250" width="170" height="20" as="geometry" />
        </mxCell>
        <mxCell id="wAYI1A4frrbEOui3LJji-66" value="ont:Class3" style="rounded=1;whiteSpace=wrap;html=1;fillStyle=auto;strokeColor=#9e0e59;fontFamily=Helvetica;fontSize=14;fontColor=#FFFFFF;fillColor=#de147e;gradientDirection=half;strokeWidth=1;" parent="1" vertex="1">
          <mxGeometry x="610" y="-250" width="170" height="20" as="geometry" />
        </mxCell>
        <mxCell id="wAYI1A4frrbEOui3LJji-68" value="ont:objectProperty1" style="rounded=0;whiteSpace=wrap;html=1;fillStyle=auto;strokeColor=none;fontFamily=Helvetica;fontSize=14;fontColor=default;fillColor=none;gradientDirection=half;align=center;" parent="1" vertex="1">
          <mxGeometry x="180" y="-220" width="130" height="20" as="geometry" />
        </mxCell>
        <mxCell id="wAYI1A4frrbEOui3LJji-69" value="ont:objectProperty1" style="rounded=0;whiteSpace=wrap;html=1;fillStyle=auto;strokeColor=none;fontFamily=Helvetica;fontSize=14;fontColor=default;fillColor=none;gradientDirection=half;align=center;" parent="1" vertex="1">
          <mxGeometry x="480" y="-220" width="130" height="20" as="geometry" />
        </mxCell>
        <mxCell id="wAYI1A4frrbEOui3LJji-70" value="" style="endArrow=block;html=1;rounded=0;fontFamily=Helvetica;fontSize=16;fontColor=default;startSize=8;endSize=8;curved=1;endFill=1;dashed=1;exitX=1;exitY=0.5;exitDx=0;exitDy=0;entryX=0;entryY=0.5;entryDx=0;entryDy=0;" parent="1" source="wAYI1A4frrbEOui3LJji-65" target="wAYI1A4frrbEOui3LJji-66" edge="1">
          <mxGeometry width="50" height="50" relative="1" as="geometry">
            <mxPoint x="480" y="-270" as="sourcePoint" />
            <mxPoint x="610" y="-270" as="targetPoint" />
          </mxGeometry>
        </mxCell>
        <mxCell id="wAYI1A4frrbEOui3LJji-71" value="" style="endArrow=block;html=1;rounded=0;fontFamily=Helvetica;fontSize=16;fontColor=default;startSize=8;endSize=8;curved=1;endFill=1;exitX=1;exitY=0.5;exitDx=0;exitDy=0;" parent="1" edge="1">
          <mxGeometry width="50" height="50" relative="1" as="geometry">
            <mxPoint x="10" y="-1060.21" as="sourcePoint" />
            <mxPoint x="70" y="-1060.21" as="targetPoint" />
          </mxGeometry>
        </mxCell>
        <mxCell id="wAYI1A4frrbEOui3LJji-72" value="" style="endArrow=block;html=1;rounded=0;fontFamily=Helvetica;fontSize=16;fontColor=default;startSize=8;endSize=8;curved=1;endFill=1;dashed=1;exitX=0.5;exitY=0;exitDx=0;exitDy=0;entryX=0.5;entryY=0;entryDx=0;entryDy=0;edgeStyle=orthogonalEdgeStyle;" parent="1" source="wAYI1A4frrbEOui3LJji-64" target="wAYI1A4frrbEOui3LJji-66" edge="1">
          <mxGeometry width="50" height="50" relative="1" as="geometry">
            <mxPoint x="180" y="-260" as="sourcePoint" />
            <mxPoint x="510" y="-310" as="targetPoint" />
            <Array as="points">
              <mxPoint x="95" y="-290" />
              <mxPoint x="695" y="-290" />
            </Array>
          </mxGeometry>
        </mxCell>
        <mxCell id="wAYI1A4frrbEOui3LJji-73" value="ont:objectProperty3" style="rounded=0;whiteSpace=wrap;html=1;fillStyle=auto;strokeColor=none;fontFamily=Helvetica;fontSize=14;fontColor=default;fillColor=none;gradientDirection=half;align=center;" parent="1" vertex="1">
          <mxGeometry x="330" y="-280" width="130" height="20" as="geometry" />
        </mxCell>
        <mxCell id="wAYI1A4frrbEOui3LJji-74" value="" style="shape=image;verticalLabelPosition=bottom;labelBackgroundColor=default;verticalAlign=top;aspect=fixed;imageAspect=0;image=data:image/png,iVBORw0KGgoAAAANSUhEUgAAA1sAAAOCCAIAAAAOb1+1AAAAAXNSR0IArs4c6QAAAARnQU1BAACxjwv8YQUAAAAJcEhZcwAADsMAAA7DAcdvqGQAAAASdEVYdFNvZnR3YXJlAEdyZWVuc2hvdF5VCAUAAKuJSURBVHhe7f0NkHTZfd/3PStHspMyrIHDqsSuuOgRnFiO4iSTApOYYhKpniqx7MhVdk3FYKKSRBZmWVlRKZZYQ1Fa7ELWY8IiQFAYiKa5MlRDAoQA0BxBS4ELYAGQeFkMVyRA7GJAEALAxc5i34DFs9hXAAtgX/J7+nfmjzPnvvSZnnv76bn9/dRgcO+5555z7uk7fX97u/vpSy8BAABgvZEIAQAA1h2JEAAAYN2RCAEAANYdiRAAAGDdkQgBAADWHYkQAABg3ZEIAQAA1t0UEuGlS+Ta4TGrg2NKx8CsDo4pHRxTOgZmdXBMKAAAwLojEQIAAKw7EiEAAMC6IxECAACsOxIhAADAuiMRAgAArDsSIQAAwLojEQIAAKw7EiEAAMC6IxECAACsOxIhAADAuptCIuTLDcfArA6OKR0Dszo4pnRwTOkYmNXBMaEAAADrjkQIAACw7kiEAAAA645ECAAAsO5IhAAAAOuORDgFd9xxxytf+cpLJ374h39YJWkbAADAPNc/EV69elXx5eabb1aOecUrXpFCzczLX/5yFd50003vfOc777vvvrQDTrv33nvTfGU0dZrYVAMAAKDX9UyEijJKeynCVFA6VDRMO+PE61//+jRBp911112pBgAAQK/rkwivXr16piyYUy5UlEwNgUQIAADO7TokQuW5l7/85Sm2LES7c7MwkAgBAMA5LTsRnj8OhgiFWvbCelLy84Tkzv8+QjWSljAQpnQMzOrgmNLBMaVjYFYHt9QJHTAOipri5WO77bbbis8ac4MQAADUW14ivHr1ap5aCq94xSte//rX5znmvvvuu+OOO/rfbqjok2oDAABgUctLhF1vd5Obb7655yVORcOeKMkbCgEAAM5pSYlQga/r9eLKSPfDP/zDaYfTFBZTDQAAACxkSYnwtttuSwnutJtvvjnVmKcnU173dxNqbMq1N910U3EvUylWB3j+t/TpAF/1qlf58PVby0Md8rAjv++++/RAa3j5vzSuZZWonH9jHACAlbWkRFh8GYkp3PS8WNzU9bqzylONjDJTcVtRq/1BSsEoD50as3JM2tZB41fvXVE1qKm56UqxKdWezUwclBJbKs0Uh6z0ls+w4t3cO68DjlzUWs0/MKk6Z3rEAQDAciwjEd53330pEZxWf4PQFCbSnqcp6qUaGcWdtDlTBKlCqpRpbTkoX/a8wbGp/3hTpRPuujUOSnEgqTSzzJGrtdbE3+qsDzoAAFiCZSTCrpeM++/YtVLQSTufljZnxk6EGvzcG2xNPXko1Tihrnu6OE8iHHbkiun1cVD6oyoAALgulpEIu15PTJvPojXnSfM9aqMmwrPGoFzXi7Bp8wl13XMbb+FEOPjIux6RLiRCAABW0DISoUJAigOZxZJB16uozbAyaiK8+eabU42MkpaGF++Tu+OOO1oPXNVcoZA211k4EQ4+8ubtRpXkrd1777233XZbxNDFHncAADCqZSTC1tcoX/WqV6XNZ6Hkl/bPqFwhxhXCeImw9W2Rr3zlKyMD5fLPi4TmaCVta6MJjM+4aF8dRXFPNNXLnH/k73rXu1KNTDHy1odDcTBtPk3lyoX9D8G0aXLSEobDrA6OKR0cUzoGZnVwy5hQPWxNiyWD1ggizdZUkrZl+jtNlTKtuar1NlvrK6qisJVqZG666aa0OZO2NSgOzn3DZaqaWc7IuwI6AAC4WEiE35MqZVpzVbwAGl7Z+69kN28Ttr78mrY1dN1yy6WqmeWMvPXh6IqYAABgZZEIvydVyjRz1b333pu2ZfqbbR1J2pZJG05rDXZNqXZmOSNvfThqbmoCAICVQiL8nlQp08xV72z7aEvr+wJD60iaN9LShtOan6FulWpnljPy1leW7aabbmoeIwAAWE0TSYTN8DFSImxtdgE1ibDyBqGkHTJLG3nXPy1k/ihJ6ydXAADA6rhuiXDAzxrL0hJhfwCqt/xEONLI77vvvtbPkhfUO7kQAICVtYxE2PxAg9THnVzXja7mq6sjJUKVpG3ns/xEON7I7637EhTVqfmUDLA0TzzxxD333HP77be/+c1v/qmf+in91rJKVJ5qAMDaWEYibM0iygdp81l03ehKmzMrngibETZtyDR775J2yCxz5KJQWNk+oRAr4n3ve9+PddPWVA8A1sMyEmFXjKv82ESu/nbjKifC1u8ITtsyrcfVKu2QWebIw1133TW3F/2XwAKPOzCghx9++I1vfKOT3y/+4i++5z3vOTo6euqpp/RbyyrxJtVRzbQPAEzdMhLhbbfdluLAafE9HJVa//0Uac15IyXCM/0jz2eS2soMmwjHG3lBD5P66nkdWf+FkKoCS6eQ58D3mte85g//8A9d+OKLLz733HP67VWVa6urEQoBrIllJMKuJFf8c8dzdd1rVPupRmakRNja7FmjbavUVmbYRDjeyFtdvXpVjbfmwsXeMAAMwncHf+3Xfs3570Mf+tCVK1de/epXq1C/tawSlWur6qhQ9Wf7AcDE9SVCXbzTUof6Cq2v9or/kTzX6eIKd3V8ytgtu2auCEAq0e+eu1N/+2//bdfM5blKq/p9xx13eFMuXkvVshe69FSYtZTGaV2JUJvS0gnXDypp7puPXKte6HkV2NV61FRQWG8NhanGQL2kpW4r0gi9FJbfi987+JrXvEaB7/nnn3/zm9+s1f39/RtvvFFPDvqtVVG5tqqO7xRqrxU8llb0UqCXAr3kptSLDDDU9P8ja71BJYoLrXf4Cl3BQro+qdCaILvuSrb+683SzFX33Xdf2pY5683OVqmtTFcibEo7ZJY58n6td3bTNmCJnnjiCQc+v1jsOPgzP/Mz99xzjyuIllWicm3VqmrO9vgxPn0MYPKWdG3u+XILRb3+d7Npa1cc7Ak0XfcUm6+TdsVBac1kr3zlK9PmzPlffk0NZYZNhDLSyPu1vn8xbQOWSGlP2e4Xf/EXtfyhD31Iywp/3/jGN7w1qMSh0C8f+4MmeWoEgEla3rW56zahKcEomeX3C7WsEpWnGm36o2Sq1KCR+OOu+t313kRrzVWKUGlzZm6uVSbW4SiTqWYqOi01lBk8EQ4+csduzWHXx4e1bzPNd80AMKrbb79d2e4973mPlq9cuVLkPG0N+kvRVtVRuepr+ed+7ufSthPeCwAmY3mJUOGg9R7VwhTsUtMdXvWqV6Wqi2rNVa0px5SN7rjjDlVIVWeZSXFK5fkuadtpaVtm8EQ4+MjzlK/ZVv3I9GpKq36XZ0Ftug6wTH6Z+Ojo6MUXX3z1q1994403pg0zn/vc57Q1pzqqqfppPdP/H1EAcBEt9fW7nrcDnpXayeNLKyWSVLuOkkpaOtGVyVo/X1IvtXJa2pYZPBHKsCPvv+/bpeuGIjCqn/qpn1KYe+qpp5577jktNP/LJELh7bff7k+ZqKbqa+Fv/I2/8Y53vOMnfuIntEwcBDBJS02EMmAofOUrXzk3WygYpdrz+PKQVk70ZLJmfKyXmjgtbcuMkQhlwJEvkAjn3tkFRtJ/j9AcCv/e3/t7X/va11LRzDe+8Q2/oZA4CGCqlp0I5erVq+d/PdcULu+4447UbhtFxpoAGncL0vqJ/ky22B2yrjbT5sxIiVCGGvlZ7zj2/GM3wNhu730fYXAo/Imf+AktuOSBBx746Z/+aeIggGm7DonQ9NxanwuV6hRH0kqD2um5WagA2rNvkSnzIWnT3Bta9957b/1RvPKVr3xn97f6KpXm4fUVr3hF/aeAF9h3qJFrivKuu2hIXE1xfVV+1lji5eMPfOADWubFYgDr4LolQlNcUyC7+eabFdqKz50oQ6hQgSOeiHuCnSgV9eRCNaIKeRdqTSln7psRa6hfJTAFrGKEikoq0dGpo7kvcF8XQ408HsT8oyTRSHzcBLiOav49wj/4gz84OjrSQoRC4iCANXGdE+GZ1Lzc3P8iMoB11vqdJeLvLHH4ky996UuqHKGQOAhgHVykRGg3N/7FYxWmpbO89w79NJlpCQNhSsdw1lnt+V7jnZ2dn/3Zn9XC3//7f9+VFQrXMA5yog6OKR0Dszq4Czmhd9xxR9d710iEAHo8/PDD1+77ze4U+uVjUTp87rnnvPze975XW9/+9rd7FQDWxEWN2F2vIJMIAfRTKPSdQvnFX/zF97znPUdHR0899dSnP/3p3/zN3/THkOWhhx5KOwDAGrjYN13vuusuRcAUBmdIhABq+D2FrX7iJ37C/0gNAKyPKbwMf++99958883+HHH9v9gCYM098cQT99xzz+233+6PmLzhDW/4tV/7tQ9+8IPf+ta3Ug0AWBu8MRMAXlIiTEsAsJZIhABAIgSw7kiEAEAiBLDuSIQAQCIEsO5IhABAIgSw7kiEAEAiBLDuppAIL/FVNiNgVgfHlI5hqFklEQZO1MExpWNgVgfHhAIAiRDAuiMRAgCJEMC6IxECAIkQwLojEQIAiRDAuiMRAgCJEMC6IxECAIkQwLojEQIAiRDAuiMRAgCJEMC6IxECAIkQwLojEQIAiRDAuqtKhPfee+9rX/taPWOallWStgHAhcWTG4DpWeyZbX4ifNe73uUWb7zxxptuukm/varyVON648sNx8CsDo4pHcN5ZnX1n9yuC07UwTGlY2BWuyz8zDZnQhUq3dD73//+VPTSS1p2If8xDeCC4skNwPSc55ltTiL0Xce8XXPr2prWAeBC4ckNwPSc55ltTiLU/jfeeGNaOe3Hf/zHtTWtAMCFwpMbgOk5zzPb/ER40003pZXTXve612krAFxQPLkBmJ7+Z7a00mbxe4R+r+LTAHAB8eQGYHrmPrOllTbneh/hLbfckoYAABeKnr54cgMwMf3PbOd6H2H/h1buvvvuNAQAuFD09OXnMZ7cAExG/zPbuT5rLF3/sM3b3va21D8AXEB6EvOzGU9uACaj65ntvP8eoSlU+uVju+WWW/gPaAAToKcyv8hiPLkBmIDimU0Rrv/uoFUlwqB2U28AAABYYYptKcBVmEIifNnLXpaWMBxmdXBM6RiY1cExpYNjSsfArNZYu0QIAACAAokQAABg3ZEIAQAA1h2JEAAAYN2RCAEAANbdaiXCg4ODra2tS5cubWxs7O7uuvDKlSsqCdvb24eHh95kly9fVrl2OT4+TkWzplzfNjc39/b20rYZNeu+vFWrsbtqqlAdeRUAAGDaVigR3nnnnc5nQSUqd+DL5eFP6dAl+p1nviJH2v7+vrc22xQVeqv3jVUAAIBpW6FE6By2s7Oj5aOjo+3t7TwRaqvLr2W3k7Aou7u7WvUdwa2tLRdKnuoUH9WaVt2IcqGWJQKibwqK2tEqiRAAAKyVFUqEjmUbGxuR9ixPhHEfMepsznhB5YqMLu9JhF6OV6UtLyQRAgCAtbJCiVC5LX9jn2/XiRNhLu4F+iVj31b0zcJ44dipLqe9/FqzG4z2LU+BJEIAALBWVigRihKb0pjv9onjXZ4INzY2lP8c7CReMtay06HvF0qRCLVjfB7FDRZ3IkmEAABgba1WIgyKfZHJHOCU0rwp5w+UFJz88lTn1hwWX/ayl7nB4lXjvBcS4VnxlZGDY0rHwKwOjikdHFM6Bma1xgolwu3t7b29Pd//83sKncnyrJbzp0mamu8FVJvOjr6bWLxhUVtdIs00CQAAMHkrlAid/HL5q8bNROg7f/F5YXFG9L3AItUVATFemM75/YhRORevOAMAAEzPCiVCpS5/4Fe2trYi6rnQ6TC3MRPvKTSVqPKdd97p237a1+VHR0fe5Pr6rfwXudChUxXcafPuI4kQAABM2Aolwusr/pHC5s1IAACAaSMRfs/h4eHly5dJhAAAYN2QCAEAANYdiRAAAGDdkQgBAADWHYkQAABg3ZEIAQAA1t3aJUK+ymYMzOrgmNIxMKuDY0oHx5SOgVmtwT1CAACAdUciBAAAWHckQgAAgHVHIgQAAFh3JEIAAIB1RyIEAABYdyRCAACAdUciBAAAWHckQgAAgHVHIgQAAFh3a5cI+SqbMTCrg2NKx8CsDo4pHRxTOgZmtQb3CAEAANYdiRAAAGDdkQgBAADWHYkQAABg3ZEIAQAA1h2JEAAAYN2RCAEAANYdiRAAAGDdkQiBVbGzs3Pp0qWDg4O0DgDAspAIsaDLly8rvqSVCVEs29jYSCtt5lZYmOZTNLFpvduVK1dU884770zrK2m8iQIADG61EqGviGFra2t3d/f4+DhtbqugS2NewVfKprh2zq3goNPkCrH7/v6+64t30cXv6OgoFS3F9kxaWbrKRDh3kHMrLJPOJR2Uzrq03jC3Qqu9vT2dq9pRNG9ddwHr7xGufiJcbKJqzD1hNMOaHy9rDLEMAOix0onQ8qSVik7TtdZbZW7gu/XWW1PRaZWJUDY3N7Wq315VuSss/8KjTjXatLJ0eSLs+crIuYO8vkdR8PnTk+znVmiKMyQ3N/b1fwunhxHn5ApaYKIqqdn+E0bPGP5jdCr1svHdpoNjSgfHlI6BWa2xiokwns339vZcsrOz06ygi43vqUhcGn0dEq82za0QXC2/nJiu5d7k24QORgqIGrArLI36XVqW0tGpr8PDw7RefY9w7iCXeRRz6XHsv/80t0KTTk6dqJ66OKvPecg+jVc5ES4wUZVqzijPjH5ruQjfeiz0EKQVAMCJ1U2EpouKSuKGXFHBz/h5ia+U4tWmuRWCq+WDCQ5DGlUMIH8RuYbj7MbGhtvRch4o1b6oJCKvViONadmFTc2IsLW1pV7yJLcA7a5GJL+4ehgepDZpWSVxT2juIGuOQnU0/qKL4ljymdRvPV75TIaaeXDW77l716ygZjWktJLxidHVlDblaSnOIms95TwJOlVcxwvNh7tH/ynnMei3psh/dJ7MtHkmNhXS5kzXTI562hfTWPCxROP6PWsVAJCseiLUsgu96uWoENeACGRF/aa5FYKr5YMJukp5q69tulalDXW0u3fMOfq4ghpUhbj8W/Qy99IYYn5aj6KS5taDiWuzeRgatruw+kHWHEVrFxqJt4pmrJglaR5s5Tyou7zxpmYFjzCtZHyaFQ+HOBJpU56WYnjWHKQOs3nCSLP9LnNPOY9hd3e3qBZ/WRp56xjEFXKtMzn2aV9MYyGfVT86edcAgFVPhE4DcVXIK+gC4626iuhy5Qp+rm/yVokKab2bq+WDycVtDKm/MJuvbWrZF6Q4kHgxKy5+LtHR+TIZh2kqiZnpopY1P0WYq+fpar12DjXIngp5FxqAeKIiTjkExP0eda0Bt74mOHcetK87SusNrRU8P/3LptXQde/Qh6N90/qJuK3ludU8uKT+xPNMqmXtq9XmKRdxSuVu1vf54qFRWNSqfrsFJcV8a65rJueOIX+4tap2FjijfCDuwo+Clwtd/50DAGtrdROhnsf9hC5xzfBqTs/p+fU1dimkzRUVgss9mCZfL0UDaL3kdPH1srikFYW+NMbtGfGwiwTQbGdAOqgIIqnotOYgHRrOOsieCu4iv2b7eh8PijZpVcGiCA0L8OB7HsrWCjozVehDdr7x2ahJU+CYVUm0KWhTaygsji6oUI2nlZnW86FLzSnnrot3/mmcUcGPhZetWWKtE7W00967eFmHUzwKOZ082iqtjwUArJtVTISF/FqYik40n819PZC03hAVCmlzxuWqn9ZP8+Xfuuq06rrqq0GFSy83r7Ue9pkujefkOFgEkdxQg+yp0OxCVJIHF+cP0VCVzxaLhoovOpe6sq90VfCjqd+qoAUNzHU08taDUjUN8loM2dgoMpO0nhtOvUVh61R3aW1W8lOuq07wPOu3h+17hM3To3+i+sfQfLhbD1MlrXPr3bukSqc5kspipw0ATMlKJ0JdLfIbBuJyXSd04fEFoLiy+hIiab1hboXgas1rmPhyKHERqr+iLOHSOAjNqkNhV04aapA9FZpdaFQqKYakyVdS0expkxTnTA0/oD0vIHZVcKRQyNN/mfh09YOo5a55E6erYqKk9dxoLWyd6i6tLUh+ynXVCRGecs27a10TVTOGc55R3r1LqpThHiEA5FYxEfZclvIKcYnK6/sSImm9YW6F4GrNwfguiDbpkq8xeLl4ua2Hb/k0M03eSOWlUV3rgppWxuF+1Useu22oQfZUaHbhwBHvIiioa7Umab2aQkn/IHsqaDw6cIU88ePoh7h55oTWiRKVNHd0CM5PMJVoMK0ttKo55Vq7zmmTJlb1VU00gNYg1TVRSzvt1Yh4udlj0ImkdjRaDSwVAcB6u8CJUPR0r1U9s0de8SVEvNo0t0JwteZgfINHdD3TajRYeXkWXYdUXzt62NrRF3hdpVyh8tLoal3xyNSy5uc8l72ua+dQg+yp4E3RryKIRqISz7xoLz0cUUHlnkmv5nrmQQPWLjH5Tf0VNEhlGs2PD1wd+QxpDUx6xD2fkooy7qh5yvmE8QBUx8co7jHo8FVTLTeHOveU6+o6qFntUvRYcCNdEzV3DIOcUdoqXnZ3Xs65WfUezxsAgIudCHWBL0r8XN8UF5Wo4NUmX2+a3ILvakjce9BFRRdLleiC55K5lBXcSC6/meExpJUZD7u4NDYPtqigVZfH/CxG83wtwrT9e4RpZWaxQfZUaH0s8sDR3Ffy22nWPw+aeR1aWmnTX8G3zaJCDKnnKFQ5z6atRyHRgtJPKprR7u60aybVYyo6MfeU8xS1zo+1HoVayENV/0Qt57TXqhK5FvynWhyRRqseVZ73CwCQi50IxVcRXYd8ZWpeLSyuGfEtdl5tal75zC3E1rhNJdFpz8gLas0XdVGULHasvDSKyn3rxZoVts59j9A0vRpV3k4+SH9B0MKD7KpQPBZaLW68aVTa17eaRAtaTdtO65oH5wZniFZzK/ioI4aqi2tDyR6+/Ch0mGoqP3nELRT0F5RPlOpo/Cr3o+BdiplUs2pf1Vrv0qlyzymnrSovCnPOc/nDZBqPK8ydKOkfgycqrcy0HqaoPB9JXkGrbtZHVJwwOlGVBXvuWOOs+HKwwTGlY2BWa6xWIgRyzYgwOGeOIqLl5lZYB0reCpp6OPzfXeYIKF5logDgQiMRYnUtIRFujvBFxtPj+21bW1txk1XR0K9la35cwkQBwIVGIsTqWkIiRI2j7q+wK16WBQBcUCRCrC4S4eo4PDzc2dmJd+8pIG5vbzff4QcAuKBIhAAAAOuORAgAALDuSIQAAADrjkQIAACw7kiEAAAA645ECFwY/gY2/sEXAMDgBkuEulClpRNFIpz7HTI1XzJz/kbopTBeL/m/HTNeL7nl9PKWt7xlY973ID/xxBNppcNiQ732775kXxzX04i/QeQv/aW/lNY7DDIhC1fQRMVMjtdLjl5y9FKglwK95KbUi7TWyROhriBpqcPo9whn17vv2dra2t3dzb84K2044e+xzSv4QtgU/3Da3ArOMU2uELvnXx3rXXRtW/JXeG3PpJUGDVhbPVpN1PJvLFX+a4L9RyFzKyyTTjYdVM+3986t0Gpvb0+P0bWHqu3rm0P9PUKfqKv87wUuNlE1+k+Ymr8LPQSaQC+rWiwDwIQNdo+w6fyJ0PKklYpO09O6t8rcwDe3Qn8iFP8jvfHlXSp3heVfNtSpRptWTlNg9ahySw6FlYlQdbqOwuZWWCafPz3Rf26FpjiFcud8sDyMOGlX0AITVUnNnvPvQs85/nN2bPUyAEzbKibCeC72F6fKzs5Os4KuJb5lInHl82VGvNo0t0JwtebFQNcPb/JtQuceBUQN2BWWRv12XfkODw+1ydOigXmi8ug8OPWiHuN7b8Uzk1a69RyFza2wTHO/vXduhSY9THqAPHVx2p/zkH2er3IiXGCiKvXMXuXfRUydfmu5iIzaS49RWgGAqVjdRGh+fSduyBUV/Hydl/hCKF5tmlshuFo+mKCLijZpVDGA/EXkGo6zG7PvilU7Ws4DpdqXuGKJViNsadmFTb6MtXKFtJLR5VDDyJPcArS7GpH82ulx+ii0ScsqiXtCc4+i5jBVR+MvuiiOJZ9q/dYDmk91qJkH/8dA85ZSaFZQsxpSWsn4zOlqSpvytBSnmbWek54EnUuu44We86Gp/5z0GPRbU+S/Sk9m2jwTmwppc6ZrJq/v30UxzwUfbPSu394LAKZh1ROhll3oVS9HhXgGj0BW1G+aWyG4Wj6YoIuQt/rSpUtR2lBHu3vHnJONK6hBVYiru0UvC1/51GBaORET2HqYlTT5Hm1cm83j1HG5C6s/iprDbO0iP0xNaTGN0jzYynlQd805zDUreIRpJePzsPl4ORJpU56WYnjWHKQOs3lGSbP9LnPPSY9hd3e3qBZ/ehp56xjEFXKtM3nd/y6KeS7k0+6HLx8bAFx0q54IfbGPJ/28gq4f3qqLhK5GruBn6iZvlaiQ1ru5Wj6YXNylkPrrrvnSpZZ9OYkDiZei4trmEh2dr4JxmKaSmJl+umyrcuuxqGtNYBHm6nk+Wy+NQx1FT4W8Cw1APJMRp3yNj9s56loDbn3Jb+48aF93lNYbWit4fvqXTauh696hD0f7pvUTcdfKc6t5cEn9memZVMvaV6vNczLSksrdrO/zxUOjsKhV/XYLPuVaH7iumZw7hvzh1qraGePvwkfqMfhh8nKh6z+EAOCCWt1EqGdhPx1LXBK8mtMzcn75jF0KaXNFheByD6bJl0PRAFovGF18OSyuWEWhr3xx90U87OIC32ynlYbnS9eZxjmXWosgkopOax6FQ8NZj6KngrvIL8m+nMejpk1aVbAoQsMCPPieOWytoFNXhT5k5xufrpo0PSizKok2BW1qDYXF0QUVqvG0MtN6wnSpOSfddfHOP40zKvix8LI1S6x1olbn78JtelnHWzxMOZ1d2iqtDxYAXCyrmAgL+aUuFZ1oPhf72VzSekNUKKTNGZerflo/zVd366rTquuirgZ1cfJy81LqYS9w5dPVTi1roga/k+E4WASR3FBH0VOh2YWoJA8uzh+ioSqfLRYNnR66sq90VfDDrd+qoAUNzHU08taDUjUNUk2JllPpidaTx6m3KGyd6i6tzUp+TnbVCZ5n/fawffuteXr0T1T/GJoPd+thqqR1bnMahlrWSPK/C7ffJVU6zZlVFjuvAGB1rHQi1FN2fj9AXK7LgJ7Q/fRdXDh9hZC03jC3QnC15iVKfLWTuITUXw+WeeVrvewNRY07FHblpKGOoqdCswuNSiXFkPToKKloerVJipOqhh/xnmnsquDEoJCn/3Tx+exHWctd8yZOV8VESevJ01rYOtVdWluQ/JzsqhMiG+WaN8+6JqpmDEOdUV1/F26/S6qU0e5qRLhHCGACVjER9lx18gpxBcrr+wohab1hboXgas3B6HKia4A26YquMXi5eDWth64i3jetz/hYopHKK5+61oUtrTTE5ap59R2QB6ZhaFpS0YlBjkJ6KjS7cOCItxkU1PVsSvq+caSVQkn/IHsqaDw6cIU88QPtc6B5aoXWiRKVNHd0CM7PQCee1hZa1ZyTrV3ntEkTq/qqJhpAa07qmqjV+btQL+Ll5pCCzjQ1osPpagcALpYLnAhFT9Za1fNyxBFfIcSrTXMrBFdrDsb3b0SXK61Gg5VXX9FVRPW1o4etHX391jXGFSqvfK7Wmn7mXvaCuq6p1qPr0nj+o7CeCt4U/SqCaCQq8UMj2kuPV1RQuafaq7meedCAtUs8Ok39FTRIZRrNjw9cHfkUag1MOiU8n5KKMu6oeU76jPIAVMfHKO4x6PBVUy03hzr3nOzqOqhZ7VL0WHAjXRM1dwznP6P0+M6mtu+E1+7iZY/Hyzn3q+HFMw8AXHTDJ8J77733ta99rdq1W2655e677069zaMn2a6nYCsq6Gm9KPEzdVNcM2699VaXeLXJl5Mmt+CbFhJ3DnRJ0AVGJbqeuWQuRQE3kstvRXgMaWXGx1Vc+ZoHGxW6jiIudab6Lo8JXMwP/uAP+kKbp5zzH4Wd9TDzwNHcV/LbadY/D3podGhppU1/Bd82iwoxpJ6jUGVNqbdK61FItKD0k4pmtLs77ZrJ4jSQueekp6h1fqz1KNRCnpn6J2oJfxcf+tCHUtFp+YRoVZFdC/5jLw5Zh6MhqTwf2Dqr+QZVnAlTOgZmtYdCmqJaCm0/9mOKcApyKdJ1m58I3/Wud7nFG2+88aabbtJvr77tbW9LPfe69tzce9VpVvBFQpcZX3iaFwOLS0JU8GpT88JmbiG2xl0oiTZ7Rl5Qa75mi6JksWPllU9U7jsrFhW6jkLlrhC2BnqjoeZfjeftnP8oQuVharW48aZRaV/fahItaDVtO61rHhwLHBFaza3go44YGv8Z41XJj0KHqabys0vcQlM+Uaqj8avQj4J3KWZSzap9VWu9S6fKPeektqq8KMw5z+UPk2k8rjB3oqR/DJ6otDLTepii8nwkUSGf6lwMUrTqfn3IxRklyoI9t7QB4AJRPHNOK2Kb4lwKdh3mJEKFSjf0/ve/PxW99JKWXVh/pxCo1IwIg3PmKCJabm6FdaDkraCph8P/YWaOgOJVJgoAVoqCmRNaa2zrv1M4JxH6xeK8XXPrt9xySxoCMJAlJMLNEb7IeHp8O21raytusioa+rVszY9LmCgAWCl+sbgrtinUpfU2cxKh9r/xxhvTymk//uM/rq1pCMBAlpAIUeOo+yvsmq+6AgBWwdzYllbazE+EN910U1o57XWvex2JEIMjEa6Ow8PDnZ2dePeeAuL29nbzHX4AgBUxN7allTaL3yP0exXTEAAAAHBdzY1taaUN7yMEAACYghHfR8hnjQEAAC6EET9rLOf89wgBAACwHGP9e4SmUOmXj+2Ws3xnCQAAAJZGIc0vH5siXP/dQatKhEHtpt5WCV9lMwZmdXBM6RiY1cExpYNjSsfArNZQbEsBrsIUEuGK8L/ou7m5ubOzM9K3OEyjCwAAsAQrlwgVMra3t/2v3ep3ETX8RVhN8c+eOaPkJYW5LdjBwYGG4U35MLp2N+9bI8Zprd8ze07T6AIAACzBaiVCRYoULjKXsy+hX04iVP5LpRntqE1DJUJTylSDjr/x9V/DmkYXAABgVKuVCJ0qtra2fEPu+PhYGXF3d9dbJQJZWm+oT4RpvcFfxipKos43GoyGoXJXCK6mBtP6og4ODtSOYmhaH8E0ugAAACNZoUQYYa4nYy0hEfpruPRbeTQVdXA750+EHnN+K1QUQ5WuHJH1W73MHU+PZhdaVvJWm9FLJODFzD0Kv93wPEcBAABGskKJUFlBuUEUILrekTZ2IlQk8taanFdfs4czmdrZ3t5ORbNCB9Pcwh21dqHophKFwlnbiTpNm8+otQtNprNgzjE01QAAAKthhRKh7O7upuAwy4Va9cvHIfJcIW0+SyIseGu8kbFr95xrLhzUYqh2cHCQNpxsUsbyqiZBvTRftp6rpwsnQlGzimjidJjXqTG3C43cEVAB0V0scCAAAGBUq5UIRQGiuLHU+j7CQtp87kQYW7t2z7mmdknrZxRDVU4qcphvVaq8CMRn1dOF41r+MrErn/VwurrQyFXYfBG5WQgAAK67lUuEcjz7QInvJ1m8iByJzatNEVC0kIpO629h+Ymwq6O4Xap52NvbWywa9nThRJhWTqgkf9m3RlcXLm9Ojg5n4demAQDASFYxEYZ4DTfuKo2dCGP3mpxXX7OV++oapygFKhfGGwq73lvZo6eLZiJUEFdJvFRdqasLl5MIAQC4EFY6EYpShQyYCG+99VZXSOunORVJTWpxzYUTYT0dy8ZMWh9CMxE6fy/2Jr/mFwT5he8iX/pV47PehlxPfOfSGJjVwTGlg2NKx8Cs1lihRKjcowBxcHDgDyLod7xyGjHl/Ilwbgv+zKwouPhtdsox2qsZlVxt4USoBrV7650/bdKxx5v8NAC/hu7Vej1dOBFGF5p2v33zrC9P93Thu5uaHz+gekR8FAvc7AQAAKNarUSouNCkGOFIIZHnCpH/uhqJ3Da3BfXl4FJoJr+u8krOZHH7M9c6yAVurfV04U2FBbJaTxdKmW42d9ZXpQEAwBKsUCIUJZI8qWi5uDM3N8+dPxGa+o1cuLm5qb0ilQZvjZbPqufumvpSszEALSzWy9x7hEGrxYeRK/V0IZpVBVl34WlMGwAAwCpZrUSIpXEiTCsAAGC9kQjXFIkQAAAEEuGaIhECAIBAIlxTJEIAABBIhAAAAOuORAgAALDuSIQAAADrjkQIAACw7tYuEfLlhmNgVgfHlI6BWR0cUzo4pnQMzGoN7hECAACsOxLhiPxldJubm5fO8WV3AAAAY1uhRKjYJMX3C4v/5bz9/f34zuK8jpKWSlQnX22KXdL6CX9lcP6dxXNbqLe7u5t2JhECAIAVtkKJcGNjQ8mpKxGqXGbhashEaMqF3ioDJsLNzU0d1MHBQVoHAABYSSuUCCP5pfUTiyVCrzZ5q6pp+ejoaGdnxyXR5twW6qmRGBgAAMDKWutEKNFmlJAIAQDAulnRROhbd4eHh3l5pDfXsaES4f7+vkuGTYTb29tpBQAAYFWtaCL053P39vaiXAuR3pqaibDgreJVJ0Ilzq2tLa1ubGwcHR25wtwWKmnw2iuiJwAAwMpaoUToT+YqQimoaUGh0DfY/IkTLQyYCHPqKP/wx/kToSOsaCH/FDMAAMBqWqFE6Cim33t7e0ppCojKgip3utJCJELfRzTv1UyEXm3y1tD8LPDcFuYiEQIAgItlFROhgtT29raCmlYjBarCIIlQA9NWVVNWc3RTKGz99wjT+kLUoG95+oXvyeMLggbHlI6BWR0cUzo4pnQMzGqNlUuEDlL7+/sKVbG6ubmpCgPeI1Q1LR8dHeWrNreFempkZ2cnrQAAAKyqFUqE/iiGP1Piz3lsbW35TYQOfIMnQvGHmvPbhMMmwhgYAADAylqhRBiBz3cExTcIZYFEWIhdvBqJ0J9iyUvmtlBPe5EIAQDA6lvFRKggWJSMlwhF+6okbhOSCAEAwLpZoUQ4PSRCAABwIZAIR+R//jq+DQUAAGA1kQhHlL8Anb9ODQAAsFJIhONSEPSnp0mEAABgZZEIAQAA1h2JEAAAYN2tXSLkq2zGwKwOjikdA7M6OKZ0cEzpGJjVGtwjBAAAWHckQgAAgHVHIgQAAFh3K5cI/VV1m5ubOzs7R0dHqXRQ0+ji/DRC2d7ePjw8TEUAAGAtrWgiDGN84cc0uji/NLjZdzqvbGwFAABLsHKJ0BRQrly5oqSivDLSHaxpdHFOGuHOzo6Gx1ftAQCwzlY0EdrBwYHCiiJLWh/BNLo4D9/O5CtVAABYZyudCB1WLl++nNZnfFvLN970W1Hm+Pg4bTu7Zhda3traUpvRi0rOc4dv7lH47YbnOYrzIBECAIDVTYTOZAor29vbqWhW6K8Jzi2cZlq7UHRTiULhrO1EnabNZ9TahfKls2DOMTTVWCINRr2TCAEAWGermAh91yocHBykDSeblLG86jfq7e3tebVeTxdOhKJmFdHE6TCvU2NuF3F3U5nMXSxwIINQ1xrAar7TEQAALMFKJ0LFlCKH+YaWypUFU9FCerpwXMvjkSuf9S5aVxcauQqbLyI3C5dmf38/7llq2KkUAACsjdVNhF3RZHd319lFSWtvb++s0dBfbtjThRNhWjmhkvxl3xpdXbi8mS91OAu/Nn1OSoTxWnzrnMzFV0YOjikdA7M6OKZ0cEzpGJjVGhcvEYpSoHJhhJgF/uWUni6aifD4+Fgl8VJ1pa4uXL5SiXBjY0O9n/O2KwAAuLhWMRHWU7pSmpG0PoRmIlTiVMlQb/LzC99FvvSrxme9DTkId33W18QBAMCUrGIiVPZSRmm986dNu7u78SY/pZmt2WcyvFqvpwsnwuji4OBAiVMlZ72F1tOF727GJ0uUa30UZ73ZqSGpKQ3vrDvmuu5ZAgCA9bGKidCZTL/TekbBRZsKC9xa6+nCmwoLRK6eLpQy3WzurK9KS8xGay+VSIQAAOCC3SM8Pj5WdvEdNdHCYlFm7j3CoNXiw8iVeroQ5TAFWXexubm52FFwjxAAAAxiFRPh9eVEmFbWAIkQAACQCEtrlQiPjo58vIvdBwUAANNAIiytTyLUYdrGxoY/4wIAANYTibC0bolwe3s7/4IWAACwhkiEAAAA627tEiFfZTMGZnVwTOkYmNXBMaWDY0rHwKzW4B4hAADAuiMRAgAArDsSIQAAwLojEQIAAKy71U2ET11XaRAAAABrYOUS4RNPPHn8wMOf/8L9n/tX912Xn89/4UtfvO+BLx0/+MCXH/nKVx978sknCYgAAGDaVisRKn596f4vX33866mJ6+f551947rlvf/WrX1NAfODBR64+/ji5EAAATNUKJUJFrq9//et/+NkvvPjii6mJ1fDMM89+4YvHX37okSeeeCKNFQAAYEJWKBE++eRTj33t6u9/4ijtv2Iee+zxP77vgce//gQ3CwEAwMSsUCL8+hNPPProVw/v/lTaf/U8++yzX/xjhcKvEwoBAMCUrEoiVMZ64oknHn7k0Y/e9ftp/4bvvvjCf/mZ337wuWfT+vXw1NPPfuEL9yu8EgpzfEHQ4JjSMTCrg2NKB8eUjoFZrTF8Irz33ntf+9rXql275ZZb7r777tRbt0iEH/7o76WGTlMc/Ok//sSf+PCv/Kef/sAT3/12Ks28//iLH/zSF9LKGX3nheff/MmP/9X3/Pr/7h+/8T+67ef/X//87a+/+6NPfftbafNpX7v69fuPH3ziiSfT0AGsBz2V6QktPbVVP7kBwCorntkU4RTkUuLpNj8Rvutd73KLN95440033aTfXn3b296Weu6QEuHDj7Qmwm+98Pz/6RO/qTjon3/38F2fefbU55E//tUH/+Rbf/5PvOnWv/i2X/7i419LpXX2P/PJH/zV/+6G//ZnbnjDzTf8wi3Xfn7+5hv+wc/8+bf+kjalSpkXX3zx81+4/7HHrj75JKEQWBd6EvOz2Vmf3ABgZXU9synOpdDTYU4iVKh0Q+9///tT0UsvadmF/f8x3Z8I5eCx+//M3b+hOPhvfeztP/fA0XdffCFteOmlzz35+P/8HW/+1371DRtvf9MN73rT//QNr/nlT/5u2jbPp7/66L/5htdcy4JvurX8+fnX/Mn/9mfed3/LfcennnrmX33+Pg2Y146BdaCnLz+PLfDkBgCrqf+Zrf9O4ZxE6BeL83bNrd9yyy1pCG3mJkK555nH/9RH3vqrj34xrc+898H7/o+/+SuKgz/8wd/4vo+984aPv/2GD/3KDb9wy9/6wG+mGt0+/dijf/6tv3TtjuBJCvxbH3nvP/j9j8XqDW98jSqoWtoh85nPfP6rX/0atwmBdeCXVBZ7cgOA1dT/zKZQl9bbzEmE2v/GG29MK6f9+I//uLamIbSpSYTyiadPvSL8u1996C+8752Kgz/03rdv3vXr1+Lg7Odf++D+n3j93/1vPvbBVK/Dmz/58Rv+wc9E/vt/3v5rTzz3Lf1oIQpv+Lm/s/vh96YdMo888tX77/8ytwmBdXCeJzcAWE1zn9nSSpv5ifCmm25KK6e97nWv09Z+P/qjP/rX/tpf/yt/tX1wTZ994up/8dvvVhz8s//8n/xffvf2iIP/wSdu/7O/uf8/+dU3/Bv/3ZVUtcN/cfDWG37+NU5+/95bfv6DD/yxy+957NH/6K1vTonw51+jai7PPfTQI3/tr9/4oz96bdjpAABM13me3ABgNfU/s6WVNovfI/R7FdNKmxdffPH5559/6qmn/+Xvl/9C9d1PPZaWMg9/45m//rHfUhz8937jv/+hw+/Fwe87/PU//8F3qfzf/qdvvu3zcz4s82f/8Rtu+Ie3KPb9v9/7Pz7znVOfX/7uCy/8/37nt64lwn94i6ql0szzz7/w2c/d981vPffCC6v1DSsABneeJzcAWE3neWY71/sI+1+Q7kqE7/rql/7UR95afLL4G89/9yd/70OKff/Wr/3Dv3DXP484+Kc+/k//77/9GyrXz88d/ctUu1skwp/+2PsVAVPpifSGwo5E+MILL3zq3s89++w3nm/sCGBizvPkBgCr6TzPbHMSYf9njfs/tNKaCP/WF39PcdCfL84/UPLaT7zPse8vfPTdEQf18//4yLUXkfXzdz/50ZovR85fNf6P3/aLdz/yZZd/5upX/5N3/Q8u73rVWD7xyT98+plnNeyavgBcXOd5cgOA1XSeZ7Y5iVC6/j3Cuf+wTSTC3/vEZ1LR7PVi/zOE/+mnP3D/t55x4W/98b/81996Lfb9n9/71j95+L04+Gd/+x3/s7f9gspv+t07v/5c+z8uXXj93R+94ef+Tkp+b7r1f/0rb/Kdwr/4G/tReMPr/+7f/MDtrl/QUJ96+hkSIbAOFn5yA4CVtfAz2/xEKAqVvg9pWq75D+iUCJ9+5hN/8IfPP/+912G/+M2n/ve/f/u3Xng+rb/00jMPf+BX737LbR//5X/z8G0RB//933n7v/vrv6Q4+P/56Hvuf+bJVHWe9K/PvDHdJtTPf3337/zKZz8Vqzf8wi1d//rMCy+8QCIE1spiT24AsMoWe2brS4SXLs3Ji/0VFKpuuOEGBaxP3ftH3/3ud1Np0wvPvfTwb7305d946fgd/87dKQ7+Lz/89v/w3W9RHPzPPvgb9z7+1VSzzv5nPvmn33jrDf/wJAKe/vnTv3Br69eWyPMvvKDw2pUI586GnHPGhF4KK9KLXJSh0kuBXgr0kqOXAr0ULkovMsBQ0/+PIO4Rfvozn3/66fQCcYtvX72WCB+8/aUvH9z1+Xf8337/7T/0+2/7D37jHykO/ul/unfWOGg3vvcg/1cJv/fzc39Hm1Klhm9+67l77v0c9wgBAMC6GTcRfvf555955huf/+L99x8/lEobvvXUIy89eudLD9/x0kO/+dKX/9lLD7zrpft/TXHwX3/bz7//wfSvCZ7VXQ8d/29++fU3/De7xY8KtSlVarj/gYf+6HN/zCdLAADAuhkxEcrzz7/wjW9888GHHv2dj/5eV8b6tXf889t++S3PP/rRlx5570sP/YuXHnz3Sw/8+k/99v/wq3/426nGsnz8dz91/MDD/OszAABg3YybCF944YVvPffcVx+7evfv3fvY1x5Ppae99sqb/qu/8jff+Au/9Ll/+c9eeuR9Lz36gZeeOHrp20+kzYv6F1/83M985H3Fzzv+qPOdlV/92uNKhI9+5TH+hWoAALBuxk2EL7744ne+892vf/3Jf/WFL33s43/Q+vmSH7vxp5UI/8qP/q1ffdv/+NK3lRqHSWP/+J7fv+Fnf/qG1//d7/287m/f/LHy32w0RcCP3/2pz/7RF7/+xJPf/vZ3FGTTBgAAgDUweiL87vPPP/vsNx56+NGP/+6nPv+FL6UNJx79ymOv+Xtv/MCH7nr2G99MRQP5zgvP/2e/vv8nX/e3402Ef/6tv3T1m99Im0+7/4GHP/bxTz740KPPPPMN3kQIAADWzbiJUF544YXnnvv21cefUBy884OHjzzS8o3G19cjjz72vjvv+lefv+9rV7+uofKSMQAAWDejJ8IXZ/8GzbPPfuPhR75679Hn3nPHhx9epVB49erX73jfR+/99OcefuQr3CAEAADrafREKC+88MJ3vvPdp5565oEvP/ypez/7W+/98NFnPr8KwesLf/zAb/7Wb3/yDz7zwAMPP/nk07yDEAAArKdlJEJ5/vlrrx1//etPHj/w0D33fvZ9H7jr/R/8+COPfvW6JDCF0a985Wt3fujjd7z/o3/wqc/cf/zg419/4lvPPadBcoMQAACsoSUlwmuvHc/+JRqFwge+/PBn/vDzdx1+8jff8zu3/4sP/eEf/fHTT38j/+LjkaiLb37zW5//wv3/4o7fuf09v/2Rj/3epz/zOSVUxcFvfuu57/J68Wk135mDM2FKx8CsDo4pHRxTOgZmdXDLm1CHwuee+/ZTTz3z8CNf/cIX7//UPX/4sY9/4v0f+Ng/u/2Dv37wvnf8+h3/9F2/Nd7Pu37jve++/YPvff9H1Omn7vns57/wpYcf+cqTTz6tnEocBAAA62ypEVup64UXrv0Lhc8++42rjz/x0MNf+eIf33/0mX/1iT84uvv37jn83U9+/PCTH9fvwX8OP6nGf/dffur3P/npT3/mcwqjDz706Neufv2ZZ77x7W9/hxeLAQDAmrsON11feOGF559//rnnvq1c+PUnnvzKV7+mfHb/8YP3fenLf3zfAyP9qHF18eUHH3n0K489/vUnlAU1AA1DgyEOAgCANXd9Xoaf3Sy8lgu//e3vfPNbzykaPv3Ms089/cy1n6eeHv5n1rK6UEfqbnZfkCwIAACQXM83ZjoXKpgpnSmiLcOsu2v/IwsCAACcuJ6JEAAAAKuARAgAALDuSIQAAADrjkQIAACw7s6cCJ8GAADAykvRrc4UEuHLXvaytIThMKuDY0rHwKwOjikdHFM6Bma1RopudbhHCAAAMEEputUhEQIAAExQim51SIQAAAATlKJbHRIhAADABKXoVodECAAAMEEputUhEQIAAExQim51SIQAAAATlKJbHRIhAADABKXoVodECAAAMEEputUhEQIAAExQim51Rk+EBwcHW1tbly5d2tjY2N3ddeGVK1dUEra3tw8PD73JLl++rHLtcnx8nIpmTbm+bW5u7u3tpW0zatZ9eatWY3fVVKE68ioAAMC0pehWZ9xEeOeddzqfBZWo3IEvl4c/pUOX6Hee+Yocafv7+/5yw2abosJ831jFXHxl5OCY0jEwq4NjSgfHlI6BWa2RoludcROhc9jOzo6Wj46Otre380SorS6/lt1OwqLs7u5q1XcEt7a2XCh5qlN8VGtadSPKhVoWLczqppuCona0SiIEAABrJUW3OuMmQseyjY2NSHuWJ8K4jxh1Nme8oHJFRpf3JEIvx6vSlheSCAEAwFpJ0a3OuIlQuS1/Y59v14kTYS7uBfolY99W9M3CeOHYqS6nvfxasxuM9i1PgSRCAACwVlJ0qzP6J0uU2JTGfLdPHO/yRLixsaH852An8ZKxlp0Ofb9QikSoHePzKG6wuBNJIgQAAGsrRbc6oyfCoNgXmcwBTinNm3L+QEnByS9PdW4twqIbLF41znshEQIAgLWSoludcRPh9vb23t6e7//5PYXOZHlWy/nTJE3N9wKqTWdH300s3rCorS6RZpoEAACYvBTd6oybCJ38cvmrxs1E6Dt/8XlhcUb0vcAi1RUBMV6Yzvn9iFE5F684AwAATE+KbnXGTYRKXf7Ar2xtbUXUc6HTYW5jJt5TaCpR5TvvvNO3/bSvy4+OjrzJ9fVb+S9yoUOnKrjT5t1HEiEAAJiwFN3qLO99hMsX/0hh82YkAADAtKXoVmfKiVAODw8vX75MIgQAAOsmRbc6U0iEfJXNGJjVwTGlY2BWB8eUDo4pHQOzWiNFtzoTv0cIAACwnlJ0q0MiBAAAmKAU3eqQCAEAACYoRbc6JEIAAIAJStGtDokQAABgglJ0q0MiBAAAmKAU3eqQCAEAACYoRbc6JEIAAIAJStGtDokQAABgglJ0q0MiBAAAmKAU3epMIRHyVTZjYFYHx5SOgVkdHFM6OKZ0DMxqjRTd6nCPEAAAYIJSdKtDIgQAAJigFN3qkAgBAAAmKEW3OiRCAACACUrRrQ6JEAAAYIJSdKtDIgQAAJigFN3qkAgBAAAmKEW3OiRCAACACUrRrQ6JEAAAYIJSdKtDIgQAAJigFN3qkAgBAAAmKEW3OlNIhHy54RiY1cExpWNgVgfHlA6OKR0Ds1ojRbc63CMEAACYoBTd6pAIgRHt7OxcunTp4OAgrQMAsCwputUhEeJ7Ll++rPiSViZEsWxjYyOttJlbYWGaT9HEpvVuV65cUc0777wzra+k8SYKADC4FN3qjJ4IfUUMW1tbu7u7x8fHaXNbBV0a8wq+UjbFtXNuBQedJleI3ff3911fvIsufkdHR6loKbZn0srSVSbCuYOcW2GZdC7poHTWpfWGuRVa7e3t6VzVjqJ567oLWH+PcPUT4WITVWPuCaMZ1vx4WWOIZQBAjxTd6iw7EVqetFLRabrWeqvMDXxzK/QnQtnc3NSqfntV5a6w/AuPOtVo08rSVSbCuYO8vkdR8OnRk+znVmiKMyR3zpeGPYw4J1fQAhNVSc32nzB6xvAfo1OplwEA/VJ0q7OkRBjP5nt7ey7Z2dlpVtDFxvdUJC6Nvg6JV5vmVgiu1ryc6FruTb5N6GCkgKgBu8LSqN+lZSkdnfo6PDxM6xNNhHoc++8/za3QpJNTJ6qnLs7qcx6yT+NVToQLTFSlmjPKM6PfWi7Ctx4LPQRpBQBwIkW3OktNhKaLikrihlxRwc/4eYmvlOLVprkVgqvlgwkOQxpVDCB/EbmG4+zGxobb0XIeKNW+qCQir1YjjWnZhU3NiLC1taVe8iS3AO2uRiS/uHoYHqQ2aVklcU9o7iBrjkJ1NP6ii+JY8pnUbz1e+UyGmnlw1u+5e9esoGY1pLSS8YnR1ZQ25WkpziJrPeU8CTpVXMcLzYe7R/8p5zHot6bIf3SezLR5JjYV0uZM10yOetoX01jwsUTj+j1rFQCQpOhW5zokQi270KtejgpxDYhAVtRvmlshuFo+mKCrlLf62qZrVdpQR7t7x5yjjyuoQVWIy79FL3MvjSHmp/UoKmluPZi4NpuHoWG7C6sfZM1RtHahkXiraMaKWZLmwVbOg7rLG29qVvAI00rGp1nxcIgjkTblaSmGZ81B6jCbJ4w02+8y95TzGHZ3d4tq8ZelkbeOQVwh1zqTY5/2xTQW8ln1o5N3DQBI0a3OdUiETgNxVcgr6ALjrbqK6HLlCn6ub/JWiQppvZur5YPJxW0Mqb8wm69tatkXpDiQeDErLn4u0dH5MhmHaSqJmemiljU/RZir5+lqvXYONcieCnkXGoB4oiJOOQTE/R51rQG3viY4dx60rztK6w2tFTw//cum1dB179CHo33T+om4reW51Ty4pP7E80yqZe2r1eYpF3FK5W7W9/nioVFY1Kp+uwUlxXxrrmsm544hf7i1qnYWOKN8IO7Cj4KXC13/nQMAaytFtzrLfh+hn9Alrhlezek5Pb++xi6FtLmiQnC5B9Pk66VoAK2XnC6+XhaXtKLQl8a4PSMedpEAmu0MSAcVQSQVndYcpEPDWQfZU8Fd5NdsX+/jQdEmrSpYFKFhAR58z0PZWkFnpgp9yM43Phs1aQocsyqJNgVtag2FxdEFFarxtDLTej50qTnl3HXxzj+NMyr4sfCyNUusdaKWdtp7Fy/rcIpHIaeTR1ul9bEAgHWToludJSXCQn4tTEUnms/mvh5IWm+49dZbXaGQNmdc3rw8my//1lWnVddVXw0qXHq5ea31cZ3p0nhOjoNFEMnlg/QXBC02yJ4KzXkQleTBxflDNFTls8WioeKLzqWu7CtdFfxo6rcqaEEDcx2NvPWgVE2DvBZDNjaKzCT5uRHfueTUW5wwrVPdJW82l59yXXWC51m/PWzfI2yeHv0T1T+G5sPdepgqaZ1b797FdYpvsnIklcVOGwhfDjY4pnQMzGqNFN3qLDsR6mqR3zAQl+s6oQuPLwDFldWXEEnrDXMrBFdrXsPEl0OJi1D9FWUJl8ZBaFYdCrty0lCD7KnQ7EKjUkkxJE2+kopmT5ukOGdq+AHteQGxq4IjhUKe/svEp6sfRC13zZs4XRUTJa3nRmth61R3aW1B8lOuq06I8JRr3l3rmqiaMZzzjPLuXVKlDPcIASCXolud6/A+wkJeIS5ReX1fQiStN8ytEFytORjfBdEmXfI1Bi8XL7f18C2fZqbJG6m8NKprXVDTyjjcr3rJY7cNNcieCs0uHDjiXQQFda3WJK1XUyjpH2RPBY1HB66QJ34c/RA3z5zQOlGikuaODsH5CaYSDaa1hVY1p1xr1zlt0sSqvqqJBtAapLomammnvRoRLzd7DDqR1I5Gq4GlIgBYbym61VmtRCh6uteqntkjr/gSIl5tmlshuFpzML7BI7qeaTUarLw8i65Dqq8dPWzt6Au8rlKuUHlpdLWueGRqWfNznste17VzqEH2VPCm6FcRRCNRiWdetJcejqigcs+kV3M986ABa5eY/Kb+ChqkMo3mxweujnyGtAYmPeKeT0lFGXfUPOV8wngAquNjFPcYdPiqqZabQ517ynV1HdSsdil6LLiRromaO4ZBzihtFS+7Oy/n3Kx6j+cNAECKbnVWLhHqAl+U+Lm+KS4qUcGrTb7eNLkF39WQuPegi4oulirRBc8lcykruJFcfjPDY0grMx52cWlsHmxRQasuj/lZjOb5WoRp+/cI08rMYoPsqdD6WOSBo7mv5LfTrH8eNPM6tLTSpr+Cb5tFhRhSz1Gocp5NW49CogWln1Q0o93daddMqsdUdGLuKecpap0faz0KtZCHqv6JWs5pr1Ulci34T7U4Io1WPao87xcAICm61Vm5RCi+iug65CtT82phcc2ICl5tal75zC3E1rhNJdFmz8gLas0XdVGULHasvDSKyn3rxZoVts59j9A0vRpV3s6Ag+yqUDwWWi1uvGlU2te3mkQLWk3bTuuaB+cGZ4hWcyv4qCOGqotrQ8lmJj8KHaaayk8ecQtN+USpjsavQj8K3qWYSTWr9lWt9S6dKvecctqq8qIw5zyXP0ym8bjC3ImS/jF4otLKTOthisrzkeQVtOpmfUTFCSPKgj13rAFgbaXoVmf0RAjkmhFhcM4cRUTLza2wDpS8FTT1cPi/u8wRULzKRAHAhZaiWx0SIZZqCYlwc4QvMp4e32/b2tqKm6yKhn4tW/PjEiYKAC60FN3qkAixVEtIhKhx1P0Vds2XZQEAF1GKbnVIhFgqEuHqODw83NnZiXfvKSBub2833+EHALigUnSrQyIEAACYoBTd6kwhEfJVNmNgVgfHlI6BWR0cUzo4pnQMzGqNFN3qcI8QAABgglJ0q0MiBAAAmKAU3eqQCAEAACYoRbc6JELgevI3sPEPvgAABpeiWx0SIc5gqv92jGLZxjm+B/k8Zv/wS8vXFjf5G0RW/F+HGW+iAABnlaJbndEToS94YWtra3d3N//irLThhL/HNq/gC2FTXBrnVnCOaXKF2D3/6ljvomvbkr/Ca3smrTRowNrq0Wqiln9jqTIR9h+FzK2wTDrZdFA93947t0Krvb09PUbXHqq2r28O9fcIVz8RLjZRNfpPmJq/Cz0EmkAvq1osA8CEpehWZ9mJ0PKklYpO09O6t8rcwDe3Qn8iFP8jvfHlXSp3heVfNtSpRptWTlNg9ahySw6FlYlQdbqOwuZWWCafPz3Rf26FpjiFcud8sDyMOGlX0AITVUnNnvPvQs85/nN2bPUyAExbim51lpQI47nYX5wqOzs7zQq6lviWicSVz5cZ8WrT3ArB1ZoXA10/vMm3CZ17FBA1YFdYGvXbdeU7PDzUJk+LBuaJyqPz4NSLeozvvRXPTFrp1nMUNrfCMs399t65FZr0MOkB8tTFaX/OQ/Z5vsqJcIGJqtQze5V/FzF1+q3lIjJqLz1GaQUApiJFtzpLTYTm13fihlxRwc/XeYkvhOLVprkVgqvlgwm6qGiTRhUDyF9EruE4uzH7rli1o+U8UKp9iSuWaDXClpZd2OTLWCtXSCsZXQ41jDzJLUC7qxHJr50ep49Cm7SskrgnNPcoag5TdTT+ooviWPKp1m89oPlUh5p58H8MNG8phWYFNashpZWMz5yuprQpT0txmlnrOelJ0LnkOl7oOR+a+s9Jj0G/NUX+q/Rkps0zsamQNme6ZvL6/l0U81zwwUbv+u29AGAaUnSrcx0SoZZd6FUvR4V4Bo9AVtRvmlshuFo+mKCLkLf60qVLUdpQR7t7x5yTjSuoQVWIq7tFLwtf+dRgWjkRE9h6mJU0+R5tXJvN49RxuQurP4qaw2ztIj9MTWkxjdI82Mp5UHfNOcw1K3iEaSXj87D5eDkSaVOelmJ41hykDrN5Rkmz/S5zz0mPYXd3t6gWf3oaeesYxBVyrTN53f8uinku5NPuhy8fGwBcdCm61bkOidAX+3jSzyvo+uGtukjoauQKfqZu8laJCmm9m6vlg8nFXQqpv+6aL11q2ZeTOJB4KSqubS7R0fkqGIdpKomZ6afLtiq3Hou61gQWYa6e57P10jjUUfRUyLvQAMQzGXHK1/i4naOuNeDWl/zmzoP2dUdpvaG1guenf9m0GrruHfpwtG9aPxF3rTy3mgeX1J+Znkm1rH212jwnIy2p3M36Pl88NAqLWtVvt+BTrvWB65rJuWPIH26tqp0x/i58pB6DHyYvF7r+QwgALqgU3eos+32EfjqWuCR4Nadn5PzyGbsU0uann7711ltT0Wlpc8blxdUi+HIoGkDrBaOLL4fFFaso9JUv7r6Ij6u4wDfbaaXh+dJ1pnHOpdYiiLR+ZWTzKBwaznoUPRXcRX5J9uU8HjVt0qqCRREaFuDB98xhawWduir0ITvf+HTVpOlBmVVJtCloU+t77IqjCypU42llpvWE6VJzTrrrYlQaZ1TwY+Fla5ZY60Qt5+8iP1E1gNa/C7fpZR1v8TDldHZpq3Ql+HXA18UOjikdA7NaI0W3OktKhIX8UpeKTjSfi/1sLmm9ISoU0uaMy1U/rZ/mq7t11WnVdVFXg7o4ebl5KfWw6698QVc7tayJGvxOhuNgEURyQx1FT4VmF6KSPLg4f4iGqny2WDR0etAhp/WGrgp+uPVbFbSggbmORt56UKqmQaop0XIqPdF68jj1FoWtU92ltVnJz8muOsHzrN8etm+/NU+P/onqH0Pz4W49TJW0zm1Ow1DLGkn+d+H2u6RKpzmzymLnFQCsjhTd6iw7EeopO78fIC7XZUBP6H76Li6cvkJIWm+YWyG4WvMSJb7aSVxC6q8Hy7zytV72hqLGHQq7ctJQR9FTodmFRqWSYkh6dJRUNL3aJMVJVcOPeM80dlVwYlDI03+6+Hz2o6zlrnkTp6tioqT15GktbJ3qLq0tSH5OdtUJkY1yzZtnXRNVM4ahzqiuvwu33yVVymh3NSLrfI8QwGSk6FbnOryPsJBXiCtQXt9XCEnrDXMrBFdrDkaXE10DtElXdI3By62v8bXSVcT7pvUZH0s0UnnlU9e6sKWVhrhcNa++A/LANAxNSyo6MchRSE+FZhcOHPE2g4K6nk3Jmb8nQ6Gkf5A9FTQeHbhCnviB9jnQPLVC60SJSpo7OgTnZ6ATT2sLrWrOydauc9qkiVV9VRMNoDUndU3U6vxdqBfxcnNIQWeaGtHhdLUDABdLim51VisRip6starn5YgjvkKIV5vmVgiu1hyM79+ILldajQYrr76iq4jqa0cPWzv6+q1rjCtUXvlcrTX9zL3sBXVdU61H16Xx/EdhPRW8KfpVBNFIVOKHRrSXHq+ooHJPtVdzPfOgAWuXeHSa+itokMo0mh8fuDryKdQamHRKeD4lFWXcUfOc9BnlAaiOj1HcY9Dhq6Zabg517jnZ1XVQs9ql6LHgRromau4Yzn9G6fGdTW3fCa/dxcsej5dz7lfDi2ceALjoUnSrs3KJUE/rRYmfqZvimhEVvNrky0mTW/BNC4k7B7ok6AKjEl3PXDKXooAbyeW3IjyGtDLjYRdXvubBRoWuo4hLnam+y2MCFxMX2jzlnP8o7KyHmQeO5r6S306z/nnQQ6NDSytt+iv4tllUiCH1HIUq55Gl9SgkWlD6SUUz2t2dds1kcRrI3HPSU9Q6P9Z6FGohz0z9E7UifxdaVWTXgv/Yi0PW4WhIKs8HBgATkKJbnZVLhOKneF1mfOFpXgwsLglRwatNXdcMtxBb4y6URJs9Iy+oNV+zRVGy2NG9pJUZd1Fc+UTlvrNiZ7ry2dZAbzTU/KvxvJ3zH0WoPEytFjfeNCrt61tNogWtpm2ndc2DY4EjQqu5FXzUEUPVxbWhZDOTH4UOU03lZ5e4haZ8olRH41ehHwXvUsykmlX7qtZ6l06Ve85JbVV5UZhznssfJtN4XGHuREn/GDxRaWWm9TBF5flIokI+1bkYpGjV/fqQizNKlAV7bmkDwAWVolud0RMhcCbNiDA4Z44iouXmVlgHSt4Kmno4/B9m5ggoXmWiAGCVpehWh0SI1bKERLg5whcZT49vp21tbcVNVkVDv5at+XEJEwUAqyxFtzokQqyWJSRC1Djq/gq75quuAIAVlKJbHRIhVguJcHUcHh7u7OzEu/cUELe3t5vv8AMArKYU3er0JUJdA9JSJnUyM/c7ZGq+ZOb8jdBLgV4KazVUeinQS4FecvRSoJfCRelFWuuk6DbTGupy3CMEAACYoBTd6pAIAQAAJihFtzokQgAAgAlK0a0OiRAAAGCCUnSrQyIEAACYoBTd6pAIB+N/0Xdzc3NnZ2ekb3GYRhcAAGAJUnSrs4xEqJCxvb3tf+1Wv4uo4S/Caop/9swZJS8pzG3BDg4ONAxvyofRtbt53xoxTmv9ntlzmkYXAABgCVJ0qzN6IlSkSOEiczn7EvrlJELlv1Sa0Y7aNFQiNKVMNej4G1//NaxpdAEAAEaVolud0ROhU8XW1pZvyB0fHysj7u7ueqtEIEvrDfWJMK03+MtYRUnU+UaD0TBU7grB1dRgWl/UwcGB2lEMTesjmEYXAABgJCm61Rk3EUaY68lYS0iE/hou/VYeTUUd3M75E6HHnN8KFcVQpStHZP1WL3PH06PZhZaVvNVm9BIJeDFzj8JvNzzPUQAAgJGk6FZn3ESorKDcIAoQXe9IO38ivPXWW10hrZ+mSOStNTmvvmYPZzK1s729nYpmhQ6muYU7au1C0U0lCoWzthN1mjaf0fd///c3u9BkOgvmHENTDXSr+RoinBWzOjimdHBM6RiY1RoputUZ/VXj3d3dFBxmuVCrfvk4RCIspM1nuUdY8NZ4I2PX7jnXXDioxVDt4OAgbTjZpIzlVU2Cemm+bD1XTxdOhKJmFdHE6TCvU2NuFxq5I6ACortY4EAAAMCoUnSrM3oiFAWI4sZS6/sIC2nzuRNhbO3aPeea2iWtn1EMVTmpyGG+VanyIhCfVU8Xjmv5y8SufNbD6epCI1dh80XkZiEAALjuUnSrs4xEKMezD5T4fpLFi8iR2LzaFAFFC6notP4Wlp8IuzqK26Wah729vcWiYU8XToRp5YRK8pd9a3R14fLm5OhwFn5tGgAAjCRFtzpLSoQhXsONu0pjJ8LYvSbn1dds5b66xilKgcqF8YbCrvdW9ujpopkIFcRVEi9VV+rqwuUkQgAALoQU3eosOxGKUoUsLRE6FUlNanHNhRNhPR3LxkxaH0IzETp/D/UmP7/wXeRLv2p81tuQAABgbCm61Rk3ESr3KEAcHBz4gwj6Ha+cRkwZOxGKPzMrCi5+m51yjPZqRiVXWzgRqkHt3nrnT5t07PEmPw3Ar6F7tV5PF06E0YWm3W/fPOvL0z1d+O6m5scPqB4RH8UCNzsBAMCoUnSrM3oiVFxoUoxwpJDIc4XIf12NRG6b24L6cnApNJNfV3klZ7K4/ZlrHeQCt9Z6uvCmwgJZracLpUw3mzvrq9IAAGAJUnSrM/qrxkokeVLRcnFnbm6eO38iNPUbuXBzc1N7RSoN3hotn1XP3TX1pWZjAFpYrJe59wiDVosPI1fq6UI0qwqy7sLTmDYAAIBVkqJbnevwPkKMxIkwrQAAgPWWolsdEuF0kAgBAEBI0a0OiXA6SIQAACCk6FZnComQLze0YRMhszo4pnQMzOrgmNLBMaVjYFZrpOhWh3uEAAAAE5SiWx0SIQAAwASl6FaHRAgAADBBKbrVIRECAABMUIpudUiEAAAAE5SiWx0SIQAAwASl6FaHRHg2/jK6zc3NS+f4sjsAAICxpehWZ9xEqNgkxfcLi//lvP39/fjO4ryOkpZKVCdfbYpd0voJf2Vw/p3Fc1uot7u7m3YmEQIAgBWWoludcRPhxsaGklNXIlS5zMLVkInQlAu9VQZMhJubmzqog4ODtA4AALCSUnSrM24ijOSX1k8slgi92uStqqblo6OjnZ0dl0Sbc1uop0ZiYAAAACsrRbc6U0iEGpW2OhFKtBklJMIF8AVBg2NKx8CsDo4pHRxTOgZmtYaTW6XlJULfujs8PMzLI725jp01EXprMxHu7++7ZNhEuL29nVYAAABWVYpudZaXCP353L29vSjXQqS3pmYiLHireNWJUIlza2tLqxsbG0dHR64wt4VKGrz2iugJAACwslJ0qzNuIvQncxWhFNS0oFDoG2z+xIkWBkyEOXWUf/jj/InQEVa0kH+KGQAAYDWl6FZn3EToKKbfe3t7SmkKiMqCKne60kIkQt9HNO/VTIRebfLW0Pws8NwW5iIRAgCAiyVFtzpLSoQKUtvb2wpqWo0UqAoDJkJVU1ZzdFMobP33CNP6QtSgb3n6hW8AAIBVlqJbnWUkQgep/f19hapY3dzcVIVhE6GWj46O8lWb20I9NbKzs5NWAAAAVlWKbnXGTYT+KIY/U+LPeWxtbflNhA58gydC8Yea89uEwybCGBgAAMDKStGtzriJMAKf7wiKbxDKAomwELt4NRKhP8WSl8xtoZ72IhECAIDVl6JbnSUlQgXBomS8RCjaVyVxm5BECAAA1k2KbnXGTYTTQyIEAAAXQopudaaQCJf5VTb+56/j21AmjC8IGhxTOgZmdXBM6eCY0jEwqzVSdKvDPcKzyV+Azl+nBgAAWCkputUhEZ6ZgqA/PU0iBAAAKytFtzokQgAAgAlK0a0OiRAAAGCCUnSrQyIEAACYoBTd6pAIAQAAJihFtzokQgAAgAlK0a0OiRAAAGCCUnSrs4xE6K+q29zc3NnZOTo6SqWDmkYX56cRyvb29uHhYSoCAABrKUW3OstLhGGML/yYRhfnlwY3+07nlY2tAABgCVJ0q7O8V40VUK5cuaKkorwy0h2saXRxThrhzs6OhrcOX7UHAAC6pOhWZ9nvIzw4OFBYUWRJ60MovtxwjC4KS+jiPHw785xfqcJXRg6OKR0Dszo4pnRwTOkYmNUaKbrVWXYidFi5fPlyWp/xbS3feNNvRZnj4+O07eyaXWh5a2tLbUYvKjnPHb65R+G3G57nKM5jkEQIAAAutBTd6iw1ETqTKaxsb2+nolmhvyY4t3Caae1C0U0lCoWzthN1mjafUWsXypfOgjnH0FRjiTQY9U4iBABgnaXoVmdJidB3rcLBwUHacLJJGcurfqPe3t6eV+v1dOFEKGpWEU2cDvM6NeZ2EXc3lcncxQIHMgh1rQGs5jsdAQDAEqToVmfZiVAxpchhvqGlcmXBVLSQni4c1/J45MpnvYvW1YVGrsLmi8jNwqXZ39+Pe5YadioFAABrI0W3OktNhF3RZHd319lFSWtvb2+xaNjThRNhWjmhkvxl3xpdXbi8mS91OAu/Nn1OSoTxWnzrnAAAgGlL0a3OSiRCUQpULowQs8C/nNLTRTMRHh8fqyReqq7U1YXLVyoRbmxsqPdz3nYFAAAXV4pudZb6yZIaSldKM5LWh9BMhEqcKhnqTX5+4bvIl37V+Ky3IQfhrs/6mjgAAJiSFN3qLCkRKnspo7Te+dOm3d3deJOf0szW7DMZXq3X04UTYXRxcHCgxKmSs95C6+nCdzfjkyXKtT6Ks97s1JDUlIZ31h1zXfcsAQDA+kjRrc6SEqEzmX6n9YyCizYVFri11tOFNxUWiFw9XShlutncWV+VlpiN1l4qkQgBAECKbnWu/z3C4+NjZRffURMtLBZl5t4jDFotPoxcqacLUQ5TkHUXm5ubix0F9wgBAMAgUnSrs3LvI1zA3K+ycSJMK2tgkETIFwQNjikdA7M6OKZ0cEzpGJjVGim61ZlCIpxrrRLh0dGRj3ex+6AAAGAaUnSrQyKcFB2mbWxs+DMuAABgPaXoVodEOCmOg9vb2/kXtAAAgDWUoludtUiEAAAA6yZFtzokQgAAgAlK0a0OiRAAAGCCUnSrQyIEAACYoBTd6pAIAQAAJihFtzokQgAAgAlK0a0OiRAAAGCCUnSrM3oi9DeqiRZS0Wn+xwKbXD92VzXXPzw8LEo+9KEPuaTgFq5cuZLW27iFSmrQo42uJ4wvCBocUzoGZnVwTOngmNIxMKs1UnSrc2ESobh+JLyIZf0tDJII1VTeyzokQgAAcKGl6Fbn+ifC4GoKcGl9xrtvbGzot1tQGvNqM5Zd27/RQm5uhS6bm5vacWtra29vTwskQgAAsOJSdKtzMRLhzs6ONx0fH2thd3dXv5XPUqUTKpQxEqF2URbUgsdDIgQAACsuRbc6FyMRqlD5Tzns4OBAq/FWwlTphAvHSISBRAgAAC6EFN3qrHoi1KoLfV9Qvzc3N1U+q0siBAAAaJeiW50Lkwh9d1AUClXuZdcJLiQRAgAApOhW58IkQi27gqJhLM+qfI8LSYQAAAAputW5SIlQOUzLLp/VvXR8fOxVcyGJEAAAIEW3OhcjEe7v76f1E65ctOlCEiEAAECKbnVWPRH6vmBz362trWb5rAESIQAAwKomwkLEMme+Jqe9rkSYl/e3kHP5AolQu3jfwnnCJQAAwHhSdKszhUTY/73GOZeTCGvwlZGDY0rHwKwOjikdHFM6Bma1RopudUZPhAAAAFi+FN3qkAgBAAAmKEW3OiRCAACACUrRrQ6JEAAAYIJSdKtDIgQAAJigFN3qkAgBAAAmKEW3OiRCAACACUrRrQ6JEAAAYIJSdKtDIgQAAJigFN3qkAgBAAAmKEW3OlNIhJP5Kht/49/m5ubOzs7R0VEqvU74gqDBMaVjYFYHx5QOjikdA7NaI0W3OktKhHt7e/H9xUXicWHY2tq6cuXK8fGxt9rh4eH29vbGxoYq6He+e3zjsFetKPRyUBe7u7tFF/3Snic0Bo1Ho9ImteOB6QBd2TRCV97f309F8zgRhvodAQAACim61Rk9ESowKYGljJOJ/JTWT9Mu3ioHBwepNKMQ5lC4QCK0aKFG2ue05hgU6VxfFFtVovib1qupTTXolOnQCQAAcFYputUZPRHGrUGlHN+WU+LZ399XYHKF2OpNDlLidBV34JQRHb+0rytsb29rtQh/VhR62V2owb29PZfEGOZyfbcg0UK06UFGgxqqKyx8n885uH6EAAAAuRTd6oybCONl0MhSTUWFYpfIXo6Dtru760JFMVXzcto2UxR6OR+D0qRK6m/gNVsoSqJHj9O5doEbhMHz0HwlWi07feq3OnXIBgAAKKToVmfcRJhHt1TU4AoRrSIR+u6ao1v+IrJEHS1EFEvbZopCL0cX0rpXD1d2C3kMjZya3yY8/w1CteZM6fugpkJFTLcc8oMCAAAIKbrVGTcR+iXjuNEVryBLFHrVyebw8NBvOlS6ctgqWrD8PqJ4OW2bKQq9rEKvinspmu3hFgoHBwdp84w71cjPc4MwDs3yLrxJjXtV86Me9/b2vAoAAJBL0a3OqiTCnLJUJKGiBTtPIszv8NXHKdcvaJz5Jz/iNqEtdoMwDk2ZtUic6svlcWMSAACgS4pudZaaCM2BrCsRKlTlSag/ESrS1SfCQvFKdD/v4kwp8emW1kOThd9B6EPT77R+WrwKr8Hr2ImGAACgS4pudcZNhH4XoKT1mdZEqMLj42PnP4VCLXurS4r0FolQCxHO0raZ1i6CWjvrDTzvGIlQPDBJ6zMatgvzmmfSnwhFKVC5MN5QuPBbFQEAwLSl6FZn3EQYcS0PLl2JUMuKO/mquLLk98N8q0zBUcuRDvMXcP1OvtYuFtNsoTURigvP01clHbhmwJMAAABQSNGtTl8iVLJJS5nUyczc75D5/u//ft/NUnCJUFjENbWZRyhvVX3fJlQQdIV4/1ykTOXCvIIa9C6OSiqJtwlqWXX6U1r/sRQtqGWVSP5ZYFEjLu/qa+6M/eRP/qR2b73zp051yAq+bkQHrjlRZW/Nze1lbgU5fyNT6kUuylDppUAvBXrJ0UuBXgoXpRdpraPoEhQY0lKHOZubUifVlGCczwpdN/D8+Ym8JCJgTmEoXlmOd9fl8heaXdKfCPu5hYKOK78xad60cF++9RiTk1ObbjxXRFIAAABL0a3O6IlQjmb/rnK89U0LyjHxVjkX5hHKqShuE8rBwYELRburcmwypUbfMGut4PKFU5q4haAudES+Z1lwhYX78t3H1nuEOiI1G4ephfMcEQAAmLYU3eosIxECAABgyVJ0q0MiBAAAmKAU3eqQCAEAACYoRbc6JEIAAIAJStGtDokQAABgglJ0q0MiBAAAmKAU3eqQCAEAACYoRbc6JEIAAIAJStGtDokQAABgglJ0qzOFRFjzfX84K2Z1cEzpGJjVwTGlg2NKx8Cs1kjRrQ73CHE2d95556Xe7/EDAACrIEW3OstIhIeHh9vb2xsbG0oS+l0kidmX9H6Pv643vpVYy2nDicuXLxdf+9usY8VXJ4eiixppzxM6Ch2Rjkub1I4PTQNzZdMxunLrlxQXBjlM0XLPVNvBwYHqeN+uOj2cCEPN0QEAgOVL0a3O6IlQ+SNlh4yCSKSQVHSaQpu3dsWgPH6dNRFadFEj7XNaHEUMIA9nSloq2dzcTOu9BjlMhbNUlClyqkdVUMtpczUduPZy9HQyBgAAKyVFtzrjJsK4f6b45fAUqWV7e9t1vOpQojoRWRx0IgbN6l6rEPe3IscUdZq8tauLGq4fPe7t7eUlcZhq2RXUiytU3kIrDmGxwyymWqNS77u7u94qMWzFRMc41VQdlbvCWTnux1EDAIDVkaJbnXETYUQQZxRTRnGhX7f1cuQepbS8pDUGbW5uqiRuv82NSt7a1UWNZv2iJMbgI3XorLxBKLF7Wp8502HWHFQ06Jk/P3da3IbUDOjwHU/Vl5aH6g4AANRL0a3OuInQN7qK12cju2hBq16OHBNbfXetNQZFoeNXf1QSb+3qoobruwXlm2IALozbhCr01vr2Ww+h6KW1TtAAvFXDaO338PDQFXwU56ceHXzjdq+oF89DTicAoRAAgCVL0a3OuInw8uXLCgTFPaQIZI4m+bLyhNKDVpUqemJQvDfRmTLqFFxZvNrVRQ23UNAw0uYZD0PNnvUGoQxymHHzVTQMreYHqJjoTW7tPOIRtHwe/IhrqI6AMdsLvzANAAAWk6JbnVVJhDllqQgZrVEpWqiMSmk9k3dRI+12mhpR4kk1stuEVn+DUAY5TFGdfAwS7yOM3d3aecTAlPbyafTN0eLhbi0EAABjS9GtzvVMhL5v5OWgQJOHjNaopAouLKKStzZ5ayi6qOEd1ZFX435bcWgxkjPdIJRBDtMUTDU835kzZ9PYfahE2GzH5TFLQYM564QAAIBzStGtzjISoQJBWp9xbhBHCi8rRijKuL4SW7ztrDUGxcujXp0blby1q4sa0UJaPzk0SeszatOFec0agxxmoYitMe1nHVuTm/LDl3N5s30SIQAAy5eiW51xE2GEmPwNbQ46ymRedQXHCL/CGKsSLXhVlLoUL1QSH2i49dZbizoFb+3qokZzl9ZEKC48U+NSc5jNOnO5vhNhpNXKcLbAFwQdzj68snP6H6PxhOefPllbfOfSGJjVwTGlg2NKx8Cs1kjRrc64iTDi11bj3yOM97d5NSKUP5YR9/CKGBSfVJC4RzU3KnlrVxc1ihbiX9VpBh2XR81K5z9MVdNxHRwc+KD0O24xxqc6fOCiYfsdkHpQ1OxZP/bhw/eL0QWnWLXpYWhUPpDWygAAYDwputUZNxFKRMCcUkKkMZdEhPJ9piiJGFTIE0ZXnchSXu3qoobrF5Qpnaty3lTfsp3/MPU7rZ+WT7UWImjmzjpa3x/1rcdCvPcxV9w1BAAAS5CiW53RE6EoJcRrrJubm8ofkVHE5XkocWXfwytikHZXvChyWH9UEq92dZGKermF4GH4rmfBFfK+agxymIqPMc+i5dabfyqMXNh8OGr03CMUjWf75AtX3H7aAAAAlihFtzrLSIQAAABYshTd6pAIAQAAJihFtzokQgAAgAlK0a0OiRAAAGCCUnSrQyIEAACYoBTd6pAIAQAAJihFtzokQgAAgAlK0a3OFBIhX2UzBmZ1cEzpGJjVwTGlg2NKx8Cs1kjRrQ73CAEAACYoRbc6JEIAAIAJStGtDokQAABgglJ0q0MiBAAAmKAU3eqQCAEAACYoRbc6JEIAAIAJStGtDokQAABgglJ0q0MiBAAAmKAU3eqQCAEAACYoRbc6Z06EAAAAmBgSIQAAwLqbQiK8dIlcOzxmdXBM6RiY1cExpYNjSsfArA6OCQUAAFh3JEIAAIB1RyIEAABYdyRCAACAdUciBAAAWHckQgAAgHVHIgQAAFh3JEIAAIB1RyIEAABYdyRCAACAdTeFRMhX2YyBWR0cUzoGZnVwTOngmNIxMKuDY0IBAADWHYkQAABg3ZEIAQAA1h2JEAAAYN2RCAEAANYdiRAAAGDdkQgBAADWHYkQAABg3ZEIAQAA1h2JEAAAYN1NIRHyVTZjYFYHx5SOgVkdHFM6OKZ0DMzq4JhQAACAdUciBAAAWHdnToRPAwAAYOWl6FaHRAgAADBBKbrVIRECAABMUIpudUiEAAAAE5SiWx0SIQAAwASl6FaHRAgAADBBKbrVIRECAABMUIpudUiEAAAAE5SiWx0SIQAAwASl6FZnConwZS97WVrCcJjVwTGlY2BWB8eUDo4pHQOzWiNFtzrcIwQAAJigFN3qkAgBAAAmKEW3OqMnwoODg62trUuXLm1sbOzu7rrwypUrKgnb29uHh4feZJcvX1a5djk+Pk5Fs6Zc3zY3N/f29tK2GTXrvrxVq7G7aqpQHXkVAABg2lJ0qzNuIrzzzjudz4JKVO7Al8vDn9KhS/Q7z3xFjrT9/X1vbbYpKvRW7xurAAAA05aiW51xE6Fz2M7OjpaPjo62t7fzRKitLr+W3U7Couzu7mrVdwS3trZcKHmqU3xUa1p1I8qFWpYIiL4pKGpHqyRCAACwVlJ0qzNuInQs29jYiLRneSKM+4hRZ3PGCypXZHR5TyL0crwqbXkhiRAAAKyVFN3qjJsIldvyN/b5dp04EebiXqBfMvZtRd8sjBeOnepy2suvNbvBaN/yFEgiBAAAayVFtzqjf7JEiU1pzHf7xPEuT4QbGxvKfw52Ei8Za9np0PcLpUiE2jE+j+IGizuRJEIAALC2UnSrM3oiDIp9kckc4JTSvCnnD5QUnPzyVOfWIiy6weJV47wXEiEAAFgrKbrVGTcRbm9v7+3t+f6f31PoTJZntZw/TdLUfC+g2nR29N3E4g2L2uoSaaZJAACAyUvRrc64idDJL5e/atxMhL7zF58XFmdE3wssUl2svuxlL1MEjBemc34/YlTOxSvOaMUXBA2OKR0Dszo4pnRwTOkYmNUaKbrVGTcRKnX5A7+ytbUVUc+FToe5jZl4T6GpRJXvvPNO3/bTvi4/OjryJtfXb+W/yIUOnargTpt3H0mEAABgwlJ0q7O89xEuX/wjhc2bkQAAANOWoludKSdCOTw8vHz5MokQAACsmxTd6kw8EQIAAKynFN3qkAgBAAAmKEW3OiRCAACACUrRrQ6JEAAAYIJSdKtDIgQAAJigFN3qkAgBAAAmKEW3OiRCAACACUrRrc4UEiFfZTMGZnVwTOkYmNXBMaWDY0rHwKzWSNGtDvcIAQAAJihFtzokQgAAgAlK0a0OiRAAAGCCUnSrQyIEAACYoBTd6pAIAQAAJihFtzokQgAAgAlK0a0OiRAAAGCCUnSrQyIEAACYoBTd6pAIAQAAJihFtzokQgAAgAlK0a0OiRAAAGCCUnSr05cIL11q2Zo6mZn7rYI1Xzt4/kbopUAvhbUaKr0U6KVALzl6KdBL4aL0Iq11UnSbaQ11Oe4RAgAATFCKbnVIhAAAABOUolsdEiEAAMAEpehWh0QIAAAwQSm61SERAgAATFCKbnVIhMCIHvqRt37p+1772D/6SFoHAGBZUnSrQyLE93z5L/6S4ktamRDFsvu//2fTSpu5FRam+dSPJjatd3vkJ9+tml/7lbvT+koab6IAAINL0a3O6Inw0mlbW1u7u7vHx8dpc1uFK1eu5BW0mradduedd1ZWuHz5cio6zRVi9/39fdcX77KxsXF0dJSKluLBv/wW/aSVpatMhHMHeX2PovDkZx/UQT386nem9Ya5FVo9evN7HviBN2lH/Wjeuu4C1t8jXP1EuNhE1Zh7wmiGNT9e1hhiGQDQI0W3OstOhJYnrVR0mnKht8rYiVA2Nze1qt9eVbkrqGWXLI3jRVpZuspEOHeQ1/coCk5aj3/4c2m9YW6FJuU27VL81MS+HqufCBeYqEpqtv+Euf/7f9Yp0KnUywCAfim61VlSInS0Oj4+3tvbc8nOzk6zgmKiyl3SDHxebZpbIbhaM+cdHBx4k28TOkEqIOa3Kpdj7qVxQLq4qq+r774nrU80ER7/uTf033+aW6FJue2hH3mrp07T+OjN7zn/Ia9+IlxgoirVnFGeGWfxInzrsdBDkFYAACdSdKuz1ERo29vbzlteLSo078/NDXy33nprf4Xgas1EKJECYwD5i8g1Hv/w5/wuK12xdO3UsrJC2jYLW/pRiV9G9CUw0piWXdj8aUaEB37gTeolT3IL0O5qRD/5xdXD8CD//ePXaFklcU9o7iBrjkJ1NH534blSSXEs+Uzqt6JSPpOhZh50dGqk5+5ds4Ka1ZDSSqY1iwRtytOSK8eP72kVXzHkSdCp4jpeaD7cPfpPOY9BvzVFGpuWPZlp80xsKn7S5kzXTI562hfTWPz4WP70//Z/5cb1e9Yqzqvm+7JwJkzpGJjVGim61bkOibBIeF6OCs1ANjcRzq0QXC0fTDg8PPTWjY0N/VZATBvq6CLni2L+4+jjCrr4qUJc/v2jwtial+c/RUSIa2RxaT+Tr7zuTg+miFMehobtLvxTP8iao2jtQiPxVtGMFbOkn+bBVs6Dussbb2pW8AjTSkYdqbx4OMSRSJvytBTD809zkDrM5gmjn2b7Xeaech7Dw69+Z1FNj74raOStY9CPK+RaZ3Ls076YxuInn1U/OnnXAIAU3epch0S4tbWVR668gmKZt+ZvNIzAV/BWGSQRSrxgLfGadSVf23RZ8gVJV0qHnngxKy5+LtHF2JdJLbiCqSSul13Usq6yRZir13PtHGqQPRXyLjQA/XiiIk45BMT9HnWtAbe+Jjh3HrSvO0rrDa0VPD/9y6bV+GnePDMfjvZN6yfitpbnVvPgEiehGp5Jtdx1ykWcUrmb1SC1Gg+NwqJW9dstKCnmW3NdMzl3DPnDrVW1s8AZ5QNxF34UvFzo+u8cAFhbKbrVWfb7CCO97e3t5RVym5ubBwcH3ir1ibCQNmdc3pUI492EZ30Hoa+XxSWtKPSlMW7PiK9tRQJotjMgXUcjiKSi05qDdGg46yB7KriL/Jrt631kJm3SqoJFERoW4MG3pgdrraDsokIfsvON054mTYFjViXRpvjRptZQWBxdUKEaTyszredDl5pTzl0X7/zTOKOCHwsvW7PEWidqaae9d/GyDqd4FHI6ebS167EAgHWToludJSXCQv5R4lR0YmNjI4+DEoEvrTcMlQh9e9K66rTquurrkn988kJb81q7wKXxnBwHiyCSG2qQPRWaXYhK8uDi/KEfDVX5bLFoqPiiZNCVfaWrgh9N/VYFD8x1NPLWg1I1DdJBpMhM0npuOPUWha1T3aW1WclPua46wfOs3x627xE2T4/+ieofQ/Phbj1MlbTOrXfv+kmVTnMk1c9ipw0ATEmKbnWWnQiVuopPbLhcCez4+Ngf71AozG/R1SfCtN7N1VrTnkblrR6D1P9LhEu4NA5Cl3aHwq6cNNQgeyo0u9CoVFIMSZdzJRXNnjbpJ7/JVMn5pucFxK4KjhQKeY/9o4/oEVQ1P4ha7po3cboqJkpaz43Wwtap7tLaguSnXFedEOEp/2neXeuaqJoxnPOM8u5dP6lShnuEAJBL0a3OdXgfYSGvoBCWr9rcwDe3QnC15mAUQBVDtWlnZ0dj8PL29nbaPI9v+TQzjQrj1lflpVEXM11Q08o43K96ad7QGmqQPRWaXThw+H1mTera1/i0Xk2hpH+QPRU0Hh24Qp5+/Dj6IVZhqtHQOlGikuaODsH5bVGVaDCtLbSqOeVau85pkyZW9VVNPxpAa5DqmqilnfZqRD9ebvYYdCKpHY1WA0tFALDeUnSrs1qJUPzxjvw24RIS4e7urjf5vmA0WP/5El2HdK3S1c4xSxc8X+B1lXKFykujq3XFI1PLuvKd57LXde0capA9Fbwp+lUE0UhUoiThEu2lHBYVVO6Z9GquZx4chmLym/oraJDKNJofH7g68i3A1sCkR9zzqZ9UlHFHmsa0fsInjAegOj5G/bjHoMNXTbXcHOrcU66r66BmtUvRY8GNdE3U3DEMckZpq3687O68nHOz6t0jAQBIim51Vi4Rxr8CEyWRzwoR16KCV5viheCCW4gbk/GPZsctw/hHE+dSVtAFqfjJb2ZUXhpdmP8UFXyF1k/rdbGegpRDTJ5yhhpkTwV3UfzkgaO5r37y22nWPw+a+dZ8Fvor+LZZVIgh9RyFKufZtPUo9BMtKP3k5drdnXbNZESiMPeU8xS1zo+1HoVayENV/0Qt57TXqhK5FnwDsjgijVY9qjzvFwAgKbrVWblEKMW7CcdOhK1vHIw2e0Ze0DXMF3X9HP+5NxTXrcpLo6jct17806zwwLnvEZoupRpV3s6Ag+yqUKQQreaRVDQq7etbTfrRglbTttO65sG5wRmi1dwKPuqIoerCg/Gq5Eehw1RTajNtm3ELzZ98olRH41ehHwXvUsxkzz1CUeWeU05bVV4U5pzn8ofJPxqPK8ydKOkfgycqrcy0HqaoPB9JXkGrbtZHVJwwoizYc8caANZWim51Rk+EQK4ZEQbnzFFEtNzcCutAyVtBUw9HfkfQETAeICYKAC60FN3qTCER8lU2YxhpVpeQCI9H+CLjQazUier7bQ/8wJviJquioV/L1vy45HpN1Jnw5z84pnRwTOkYmNUaKbrV4R4hlmoJiRA1Hu/+Crvmy7IAgIsoRbc6JEIsFYlwdVx99z0P/chb4917CogP/uW3NN/hBwC4oFJ0q0MiBAAAmKAU3eqQCAEAACYoRbc6JEIAAIAJStGtDokQAABgglJ0q0MiBAAAmKAU3eqQCIHryV/kfXBwkNYBABhIim51SIQ4A3/jX1qZEMWyjY2NtNJmboWFzb4r8ZImNq138zcrxpc3rqbxJgoAcFYputUZPRH6ghe2trZ2d3f9hcWWNpxQBV358grxFcOF5vcaF6JC//cax+77+/uuL95F17b8y46XYHsmrTRowNrq0Wqiln9jqTIR9h+FzK2wTDrZdFA6LdN6w9wKrfb29vQYXXuoZoGv68Gqv0e4+olwsYmq0X/C1Pxd6CHQBHpZ1WIZACYsRbc6y06ElietVHSanta9VeYGvrkV+hOhbG5ualW/vapyV1j+ZUOdarRp5TQFVo8qt+RQWJkIVafrKGxuhWXy+dMT/edWaIpTKHfOB8vDiJN2BS0wUZXU7Dn/LvSc4z9nx1YvA8C0pehWZ0mJMJ6L9/b2XLKzs9OsoGuJb5lIXPl8mRGvNt166639FYKrNS8Gun54k28TOvcoIGrArrA06rfrynd4eKhNnhYNzBOVR+dhvexlL1Mv6lH9pqKJJkI90D33n2RuhSY9THqAPHVx2n/oQx/y1sX4D2GVE+ECE1Wp54T5wR/8QW2a+3cRU6ffWi4io/bSY5RW1h5fFzs4pnQMzGqNFN3qLDURml/fiRtyRQU/X+clvhCKV5vmVgiulg8mOOtoVDGA/EXkGo6zGxsbbkfLeaBU+xJXLNFqhC0tu7DJl7FWrpBWMrocahh5kluAdlcjkl87PU4fhTZpWSVxT2juUdQcpupo/EUXxbHkU63fekDzqQ418+D/GGjeUgrNCmpWQ0orGZ85XU1pU56W4jSz1nPSk6BzyXW80HM+NPWfkx6DfmuK/FfpyUybZ2JTIW3OdM3k9f27KOa54ION3vXbewHANKToVuc6JEItu9CrXo4K8Qwegayo3zS3QnC1fDBBFyFv9aVLl6K0oY529445JxtXUIOqEFd3i14WvvKpwbRyIiaw9TArafI92rg2m8ep43IXVn8UNYfZ2kV+mJrSYhqlebCV86DumnOYa1bwCNNKxudh8/FyJNKmPC3F8Kw5SB1m84ySZvtd5p6THsPu7m5RLf70NPLWMYgr5Fpn8rr/XRTzXMin3Q9fPjYAuOhSdKtzHRKhL/bxpJ9X0PXDW3WR0NXIFfxM3eStEhXSejdXyweTi7sUUn/dNV+61LIvJ3Eg8VJUXNtcoqPzVTAO01QSM9NPl21Vbj0Wda0JLMJcPc9n66VxqKPoqZB3oQGIZzLilK/xcTtHXWvArS/5zZ0H7euO0npDawXPT/+yaTV03Tv04WjftH4i7lp5bjUPLqk/Mz2Taln7arV5TkZaUrmb9X2+eGgUFrWq327Bp1zrA9c1k3PHkD/cWlU7Y/xd+Eg9Bj9MXi50/YcQAFxQKbrVWfb7CP10LHFJ8GpOz8j55TN2KaTNFRWCyz2YJl8ORQNovWB08eWwuGIVhb7yxd0X8bCLC3yznVYani9dZxrnXGotgkgqOq15FA4NZz2KngruIr8k+3Iej5o2aVXBoggNC/Dge+awtYJOXRX6kJ1vfLpq0vSgzKok2hS0qTUUFkcXVKjG08pM6wnTpeacdNfFO/80zqjgx8LL1iyx1olanb8Lt+llHW/xMOV0dmmrtD5YAHCxpOhWZ0mJsJBf6lLRieZzsZ/NJa03RIVC2pxxueqn9dN8dbeuOq26LupqUBcnLzcvpR72Alc+Xe3UsiZq8DsZjoNFEMkNdRQ9FZpdiEry4OL8IRqq8tli0dDpoSv7SlcFP9z6rQpa0MBcRyNvPShV0yDVlGg5lZ5oPXmceovC1qnu0tqs5OdkV53gedZvD9u335qnR/9E9Y+h+XC3HqZKWuc2p2GoZY0k/7tw+11SpdOcWWWx8woAVkeKbnWWnQj1lJ3fDxCX6zKgJ3Q/fRcXTl8hJK03zK0QXK15iRJf7SQuIfXXg2Ve+Vove0NR4w6FXTlpqKPoqdDsQqNSSTEkPTpKKppebZLipKrhR7xnGrsqODEo5Ok/XXw++1HWcte8idNVMVHSevK0FrZOdZfWFiQ/J7vqhMhGuebNs66JqhnDUGdU19+F2++SKmW0uxoR7hECmIAU3epch/cRFvIKcQXK6/sKIWm9YW6F4GrNwehyomuANumKrjF4uXg1rYeuIt43rc/4WKKRyiufutaFLa00xOWqefUdkAemYWhaUtGJQY5Ceio0u3DgiLcZFNT1bErO/D0ZCiX9g+ypoPHowBXyxA+0z4HmqRVaJ0pU0tzRITg/A514WltoVXNOtnad0yZNrOqrmmgArTmpa6JW5+9CvYiXm0MKOtPUiA6nqx0AuFhSdKuzWolQ9GStVT0vRxzxFUK82jS3QnC15mB8/0Z0udJqNFh59RVdRVRfO3rY2tHXb11jXKHyyudqreln7mUvqOuaaj26Lo3nPwrrqeBN0a8iiEaiEj80or30eEUFlXuqvZrrmQcNWLvEo9PUX0GDVKbR/PjA1ZFPodbApFPC8ympKOOOmuekzygPQHV8jOIegw5fNdVyc6hzz8muroOa1S5FjwU30jVRc8dw/jNKj+9savtOeO0uXvZ4vJxzvxpePPMAwEWXoludlUuEelovSvxM3RTXjKjg1SZfTprcgm9aSNw50CVBFxiV6HrmkrkUBdxILr8V4TGklRkPu7jyNQ82KnQdRVzqTPVdHhO4mLjQ5inn/EdhZz3MPHA095X8dpr1z4MeGh1aWmnTX8G3zaJCDKnnKFQ5jyytRyHRgtJPKprR7u60ayaL00DmnpOeotb5sdajUAt5ZuqfqBX5u9CqIrsW/MdeHLIOR0NSeT4wAJiAFN3qrFwiFD/F6zLjC0/zYmBxSYgKXm3quma4hdgad6Ek2uwZeUGt+ZotipLFju4lrcy4i+LKJyr3nRU705XPtgZ6o6HmX43n7Zz/KELlYWq1uPGmUWlf32oSLWg1bTutax4cCxwRWs2t4KOOGKourg0lm5n8KHSYaio/u8QtNOUTpToavwr9KHiXYibVrNpXtda7dKrcc05qq8qLwpzzXP4wmcbjCnMnSvrH4IlKKzOthykqz0cSFfKpzsUgRavu14dcnFGiLNhzSxsALqgU3eqMngiXgK+yGcP1mtVmRBicM0cR0XJzKyzmYp2oSt4Kmno4/B9m5ggoXh1pos6EP//BMaWDY0rHwKzWSNGtzhQSIaZkCYlwc4QvMp4e307b2tqKm6yKhn4tW/PjEiYKAFZZim51SIRYLUtIhKhx1P0Vds1XXQEAKyhFtzokQqwWEuHqODw83NnZiXfvKSBub2833+EHAFhNKbrVIRECAABMUIpudUiEAAAAE5SiWx0SIQAAwASl6FaHRAgAADBBKbrVIRECAABMUIpudUiEAAAAE5SiWx0S4WD8L/pubm7u7OyM9C0OS+gCAABMQ4pudZaRCJVjtre3/a/d6neRZvxFWE3xz545BuUlhVtvvdUVCkX9g4MDDcOb8mF0DcC8b40Yp7V+z+w5LaGLwBcEDY4pHQOzOjimdHBM6RiY1RoputUZPREqtaT8krmcfQn9+RPh3BZE+S+VZrSjNg2VCE0pUw06/sbXfw1rCV0AAICLLkW3OqMnQgeXra0t35A7Pj5WRtzd3fVWiUCW1hvqE2Fab/CXsYqSqCOUBqNhqNwVgqupwbS+qIODA7WjGJrWR7CELgAAwMWVoludcRNhhLmejLWEROiv4dJv5dFU1MHtnD8Resz5rVBRDFWAc0TWb/Uydzw95nbhtxuepwsAAHBxpehWZ9xEqDiiaCLKKF1vehs7ER4eHnprTc6rr9lDR60opna2t7dT0azQwTS3cEetXehInQVzW1tbhEIAANZQim51Rn/VeHd3N2WTWS7Uql8+DpHnCmnzWRJhwVvjjYxdu+dcc+GgFkO1g4ODtOFkk2KcVzUJ6qX5svVcPV1cvnxZJWrWEVABUXFQJQv0AgAALroU3eqMnghFGaW4d9X6PsJC2nzuRBhbu3bPuaZ2SetnFENVFMuzmvhWZbyfcmFdXahZFTZfRG4WAgCAdZCiW51lJEI5nn2gxLesLF5EjsTm1ab6RJjWT1t+IuzqKG6Xah729vYWi4ZdXbi8OXL1tbm5mVYAAMDaSNGtzpISYYjXcOPG1diJMHavyXn1NVu5r65xilKgcmG8obDrvZU9urpwOYkQAABYim51lp0IZZaFlpcIj08+3VITjFxz4URYT8eyMZPWz82vSsf7FM2vGuefPgEAAGsiRbc64yZC5R5llIODA3/WQb/jldP4uMPYiVD8sVxRNlJyUomikvYa/N8jVIPavfXOnzbp2N27aAB+Dd2r9Xq68K1HDd6zrelyFwvciQQAABddim51Rk+ESiRNSipOLRJ5rhD5r6uRyG1zW1BfzkaFZvLrKq/kT/u2fpKjdZAL3L3r6ULJ283miruGAABgTaToVmf0V4339/cdYkzLxZ25uXlubiKs/F5j9Ru5cHNzU7tHKg3eunAi7LmBp77UbAxAC4v10tOF6JCVMt2FjzFtODu+MnJwTOkYmNXBMaWDY0rHwKzWSNGtznV4HyEAAADGlqJbHRIhAADABKXoVodECAAAMEEputUhEQIAAExQim51SIQAAAATlKJbHRIhAADABKXoVodECAAAMEEputUhEQIAAExQim51SIQAAAATlKJbHRIhAADABKXoVmcKiXCZX2XjL6Pb3Ny8dI4vu7sQ+IKgwTGlY2BWB8eUDo4pHQOzWiNFtzrjJkJ/wW7x/cLibzre39+P7yzO6yhpqUR18tWm2CWtn/BXBuffWTy3hXq7u7tp56knQgAAcKGl6FZn3ES4sbGh5NSVCFUus3A1ZCI05UJvlQET4ebmpg7q4OAgrQMAAKykFN3qjJsII/ml9ROLJUKvNnmrqmn56OhoZ2fHJdHm3BbqqZEYGAAAwMpK0a3O1BKhRJtRQiIEAADrJkW3OstLhL51d3h4mJdHenMdGyoR7u/vu2TYRLi9vZ1WAAAAVlWKbnWWlwj9+dy9vb0o10Kkt6ZmIix4q3jViVCJc2trS6sbGxtHR0euMLeFShq89oroCQAAsLJSdKszbiL0J3MVoRTUtKBQ6Bts/sSJFgZMhDl1lH/44/yJ0BFWtJB/ihkAAGA1pehWZ9xE6Cim33t7e0ppCojKgip3utJCJELfRzTv1UyEXm3y1tD8LPDcFuYiEQIAgIslRbc6S0qEClLb29sKalqNFKgKAyZCVVNWc3RTKGz99wjT+kLUoG95+oVvAACAVZaiW51lJEIHqf39fYWqWN3c3FSFYROhlo+OjvJVm9tCPTWys7OTVgAAAFZVim51xk2E/iiGP1Piz3lsbW35TYQOfIMnQvGHmvPbhMMmwhgYAADAykrRrc64iTACn+8Iim8QygKJsBC7aFRajUToT7HkJXNbqKe91iQR8pWRg2NKx8CsDo4pHRxTOgZmtYaTW6UlJUIFwaJkwETo1ch/on1VErcJSYQAAGDdpOhWZ9xEOD0kQgAAcCGk6FaHRHg2/uev49tQAAAAVlOKbnVIhGeTvwCdv04NAACwUlJ0q0MiPDMFQX96mkQIAABWVopudUiEAAAAE5SiWx0SIQAAwASl6FaHRAgAADBBKbrVIRECAABMUIpudUiEAAAAE5SiW50pJEK+ymYM55zVh37krV/6vtc+9o8+ktZX0pIHyYk6BmZ1cEzp4JjSMTCrNVJ0q7OMROivqtvc3NzZ2Tk6Okql0/Llv/hLyhZpZVV97Vfu1iDj55GffHfaMAJ3oWlJ60tU/1iMOsgLcdpf+3c1L13a3t4+PDxMRQCAqUjRrc7yEmFY2S/8ePAvv0U/aeWMlpAIFeCcYPzzwA+86SuvO9v3Mg+VCGsm6jreI6x/LEYd5IU47dPgZl8CPtX/WgOAtZWiW53lvWqs682VK1d04dHlZzVvSCgcLHy7aPmJ0D+LpTpHw4UTofYd6b7aIJbwWNRb/dNeI9zZ2dHw+G5GAJiYFN3qLPt9hAcHB7r26AqU1lfJeYLO0hKhwpyWn/zsg4/e/B6t3v/9P+utZ0IiXLJVPu3FtzP5Dh4AmJgU3eosOxH62nP58uW0PuO7FL6Pot+6Mh0fH6dtdR7/8Oce+pG3Kh4pChz/uTdoWZkpbZtFBP2oxK8SOtBcffc9sdWFzR/Hr9wDP/Am9RL7BjfiLjwMlWhUafPMV15354N/+S1dg5T8KPRbiS2vkCdC02BUkg8mH4C66Mp8PYmwZ5A1E+WW46e1i/M8WNY/UR5nPhUqyR+LuYNUfc1t0ULzQa8397T32w3PetoPhUQIAJOUoludpSZCXfB02dO1Z3t7OxXNCv01wbkzXZx0qfZlO//xFd0VdDlXBYWPvIIKY2tenv/k8UsiSbRmCJU7osVPdCFFCvFPXkGjLUaon7wjLaskH5K7SyuzFooB6OfhV78zbc54MM2j6B9kzUQVLTS7OOeDJXMnyuOsfyyag2xtQZ2mzWfUetofHh46C+a2trauSyjUYNQ7iRAAJiZFtzpLSoTFu+wPDg7ShpNNumR61e+72tvb82oNX791XXeqUObwtfzRm9+TV4iSxz/8OUeK/L6RqCTPDa3UsvJK83bR3C6UQh76kbfGhxjUgitEEnJMUR2vakcdURyCaFUVnL20l6KeVvMBa1+VNOehOExxX80kNHeQVvTbqqsLT1RzkPUP1tyJmttC6B+kW9A49eNBnvUzKD2n/eXLl1USt8OVyRQHVXKmM39A6loDWM13OgIAFpOiW51lJ0JddfLrovj+hMqVBVPRWegyr0t1EVCKQl/g80/mKgSoRIEgrc8026nX7MKJregiV4xB2UirSh7N4GKun/8o6GivtPnppxVVi48AO/E0P5LclYSaFp6o1i4GebDmTlT9Y9E1D24hn9uumv26Tnud6ipsvojcLFya/f39uGepYadSAMBFlqJbnaUmwq4rze7uri9FunDu7e2dKRp2XaqVGBSYvOwLvJetCBmmksglZ1XThTKKq+U/eQUHF/1o8I/e/J4i8bjB+GlGonxr/tOcnJ58M3eQopK5E9XaRVe/Z32w+ieqpgXrGk+zBVHJ3H9zp9B12ru8+Sqtzv/Nzc20slxKhPHmja6/UwDAxZKiW52VSISiFKhcGNek+n8IY6iQISqZG3S6zO1CwUWrzZ9iDAo3ijt+lVM/XbfKvFyM1rs0f5qT0zVplYNUydyJau2iq98FHqyeiapsQbrG02zhyc8+qJJ4qbpS12nv8pVKhBsbGwvfpwcArKYU3er0JUJdtNJSJnUyM/c7ZGq+ZKaoo4ulLk6S1uc1cvXd92x+7e8Xl2rFBV2/446OLvCq42VrRgT1cv/3/6yiSVpv6B+GM0Rep+jC2eV/cfNf8qq0xpRoQeUaj368KlHfddxjnoS06nnoH6p834/+X1W5mYQ8SLfpRloH6Ynq70W7aM6LLvyCb/5gqZHmg6VVL4sqtI4h6FiKiWrmuX9n779sbUElKlf7xbE0W9Cc6HCUmNN6m/4Jkajgd0rEe2fNrxoX76loqu+lR1HHXecJdYxemuilQC85einQS4FeCq11UnSbaQ11uSXdI9zb29NQWu/8adPu7m68pV0Xp63ZW+y9WsM5Rtd1f1hBl3nlFZVEWmpe4FtDhqv1X/XVssJH/g4zm9uF9tKqd1QGUi8uiQoqefjV74yWVcdH4VUpGtSCVuPWmihUqUTVtG8q6uB9VTOtn5g7SKuZqK4uzv9gzZ2oyodbugbpFqKLx/7RRzwPcye20HPa+3Z4fLJE/yHk077+7rjp70VN6b+gzrpjruueJQDgQkvRrc6SEqE/Wdn6rnldh7SpkP87HXPpgq2rdfGT34iqjAguzH+KCg4Q+unKEGllpuhC4/G+xU9UaPaun/yNa80xu83IUkowDi7Fj7dKaxf6qR+kNdvpPwr9RIXzP1itXeQTtVgL+okKbqH4iXmu13PaH8z+zepCcdewRvz5nOcjKSRCAJikFN3qXP97hMfHx7oU+QaJaGGBK5Ou5b5Dpp/jxr/MXJkIReW+ieWfZoWF7xE+mf2Tyx6hPx6RV1Chb3fpRwta9SYrGpTHZ6+35rcJNTD1UuTCtK0iCc0dZNCm1oma24Vo+TwP1tyJGjwRavWs/+6M9Zz2ohym//Lxab+5ublYIOMeIQCgS4pudZaUCEfy7LPPfutb39LCM888893vfpdllgdZ/uZdX3rsb/7z/jrPPfecFqaBRAgAk5SiW50Lngg//vHn/8k/0bX5O4899vx//p+zzPIgy9/+D/+T5/6//3V/ne+85jXpLLzgjo6O/Or23A+1AAAulhTd6lzsRCjf+St/5fk3vvH5v/pXv/mOd7DM8iDLX/uPf/yZf+P/MLd+OgUvsmuvWM9sbGxcly/QAwCMJ0W3Ohc+Ecq3/8bfiMszyyyff9nvI6ypf9E5Dm5vb/P9dQAwPSm61ZlCIgQAAEAhRbc6JEIAAIAJStGtDokQAABgglJ0q0MiBAAAmKAU3epMIRHWfN8fzopZHRxTOgZmdXBM6eCY0jEwqzVSdKvDPUIAAIAJStGtDokQAABgglJ0qzN6IvQXZIkWUtFp/r6EJteP3eOL/A8PD4uS/hauXLmS1tu4hUpq0H1F1wAAAKspRbc6FyYRiutHwltmIlRTeS8kQgAAsOJSdKtz/RNhcLXi6/a9+8bGhn67BaUxrzZj2bX9e7+wf26FLpubm9pxa2trb29PCyRCAACw4lJ0q3MxEuHOzo43HR8fa2F3d1e/lc9SpRMqlDESoXZRFtSCx0MiBAAAKy5FtzoXIxGqUPlPOezg4ECr8VbCVOmEC8dIhIFECAAALoQU3eqseiLUqgt9X1C/Nzc3VT6rSyIEAABol6JbnQuTCH13UBQKVe5l1wkuJBECAACk6FbnwiRCLbuComEsz6p8jwtJhAAAACm61blIiVA5TMsun9W9dHx8rOX4KhsXkggHwRcEDY4pHQOzOjimdHBM6RiY1RoputW5GIlwf38/rZ9w5aJNF5IIAQAAUnSrs+qJ0PcFm/tubW01y2cNkAgBAABWNREWIpY58zU57XUlwry8v4WcyxdIhNrF+xbOEy4BAADGk6JbHRJhFRIhAAC4WFJ0qzN6IgQAAMDypehWh0QIAAAwQSm61SERAgAATFCKbnVIhAAAABOUolsdEiEAAMAEpehWh0QIAAAwQSm61ZlCIuSrbMbArA6OKR0Dszo4pnRwTOkYmNUaKbrV4R4hAADABKXoVodECAAAMEEputUhEQIAAExQim51SIQrxN/4t7m5ubOzc3R0lEoBAADOLkW3OktKhHt7e/Htw0XicWHY2tq6cuXK8fGxt9rh4eH29vbGxoYq6He+e3zjsFetKPRyUBe7u7tFF/3Snic0Bo1Ho9ImteOB6QBd2TRCV97f309F8zgRhvodAQAACim61Rk9ESowKYGljJOJ/JTWT9Mu3ioHBwepNKMQ5lC4QCK0aKFG2ue05hgU6VxfFFtVovib1qupTTXolOnQCQAAcFYputUZPRHGrUGlHN+WU+LZ399XYHKF2OpNDlLidBV34JQRHb+0rytsb29rtQh/VhR62V2owb29PZfEGOZyfbcg0UK06UFGgxqqKyx8n885uH6EAAAAuRTd6oybCONl0MhSTUWFYpfIXo6Dtru760JFMVXzcto2UxR6OR+D0qRK6m/gNVsoSqJHj9O5doEbhMHz0HwlWi07feq3OnXIBgAAKKToVmfcRJhHt1TU4AoRrSIR+u6ao1v+IrJEHS1EFEvbZopCL0cX0rpXD1d2C3kMjZya3yY8/w1CteZM6fugpkJFTLcc8oMCAAAIKbrVGTcR+iXjuNEVryBLFHrVyebw8NBvOlS6ctgqWrD8PqJ4OW2bKQq9rEKvinspmu3hFgoHBwdp84w71cjPc4MwDs3yLrxJjXtV86Me9/b2vAoAAJBL0a3OqiTCnLJUJKGiBTtPIszv8NXHKdcvaJz5Jz/iNqEtdoMwDk2ZtUic6svlcWMSAACgS4pudZaaCM2BrCsRKlTlSag/ESrSqTWNSstp20xrIiwUr0T38y7OlBKfbmk9NFn4HYQ+NP1O66fFq/AavI591GjIV0YOjikdA7M6OKZ0cEzpGJjVGk5ulcZNhH4XoKT1mdZEqMLj42PnP4VCLXurS4r0FolQCxHO0raZ1i6CWjvrDTzvGIlQPDBJ6zMatgvzmmfSnwhFKVC5MN5QuPBbFQEAwLSl6FZn3EQYcS0PLl2JUMuKO/mquLLk98N8q0zBUcuRDvMXcP1OvtYuFtNsoTURigvP01clHbhmwJMAAABQSNGtzriJ8Pjk47EKLhEK++Oat6q+bxNGRoz3z0XKVC7MK6hB7+KopJJ4m6ArDJgI1bJL8s8Cm8sX7sstt9750yYdcgRfHbjmRJW9CgAAkEvRrc64iVCUYJzPCl2J0J+fyEsiAuYUhuKV5Xh3XS5/odkl50+EBR1XfmPSvGnhvnzrMSYnpzbdeK4ZSQEAACRFtzqjJ0I5mv27yvHWNy0ox8Rb5VyYRyinorhNKAcHBy4U7a7KscmUGn3DrLWCyxdOaeIWgrrQEfmeZcEVFu6r5x6hjkjNxmFq4TxHBAAApi1FtzrLSIQAAABYshTd6pAIAQAAJihFtzokQgAAgAlK0a0OiRAAAGCCUnSrQyIEAACYoBTd6kwhEfJVNmNgVgfHlI6BWR0cUzo4pnQMzGqNFN3qcI8QAABgglJ0q0MiBAAAmKAU3eqQCAEAACYoRbc6JEIAAIAJStGtDokQZ3PnnXde6v0ePwAAsApSdKuzjER4eHi4vb29sbGhJKHfRZKYfUnv9/jreuNbibWcNpy4fPly8bW/zTpWfHVyKLqokfY8oaPQEem4tEnt+NA0MFc2HaMrt35JcWGQwxQt90y1HRwcqI737arTw4kw1BwdAABYvhTd6oyeCJU/UnbIKIhECklFpym0eWtXDMrj11kToUUXNdI+p8VRxADycKakpZLNzc203muQw1Q4S0WZIqd6VAW1nDZX04FrL0dPJ2MAALBSUnSrM24ijPtnil8OT5Fatre3XcerDiWqE5HFQSdi0KzutQpxfytyTFGnyVu7uqjh+tHj3t5eXhKHqZZdQb24QuUttOIQFjvMYqo1KvW+u7vrrRLDVkx0jFNN1VG5K5yV434cNQAAWB0putUZNxFGBHFGMWUUF/p1Wy9H7lFKy0taY9Dm5qZK4vbb3KjkrV1d1GjWL0piDD5Sh87KG4QSu6f1mTMdZs1BRYOe+fNzp8VtSM2ADt/xVH1peajuAABAvRTd6oybCH2jq3h9NrKLFrTq5cgxsdV311pjUBQ6fvVHJfHWri5quL5bUL4pBuDCuE2oQm+tb7/1EIpeWusEDcBbNYzWfg8PD13BR3F+6tHBN273inrxPOR0AhAKAQBYshTd6oybCC9fvqxAUNxDikDmaJIvK08oPWhVqaInBsV7E50pb731Vq8WXFm82tVFDbdQ0DDS5hkPVc2e9Qah1Bxm1Cm4ssTNV9EwtJofoGKiN7m1uXq+ICgeQcvnwY+4huoIGLO98AvTU8J3Lo2BWR0cUzo4pnQMzGqNFN3qrEoizClLRchojUrRQmVUSuuZvIsaabfT1IgST6qR3Sa0+huEMshhiurkY5B4H2Hs7tbOIwamtJdPo2+OFg93ayEAABhbim51rmci9H0jLwcFmjxktEYlVXBhEZW8tclbQ9FFDe+ojrwa99uKQ4uRnOkGoQxymKZgquH5zpw5m8buQyXCZjsuj1kKGsxZJwQAAJxTim51lpEIFQjS+oxzgzhSeFkxQlHG9ZXY4m1nrTEoXh716tyo5K1dXdSIFtL6yaFJWp9Rmy7Ma9YY5DALRWyNaT/r2JrclB++nMub7ZMIAQBYvhTd6oybCCPE5G9oc9BRJvOqKzhG+BXGWJVowaui1KV4oZL4QEOzTsFbu7qo0dylNRGKC8/UuDQPYYHDbHJ9J8JIq+OFs8PZh1d2Tv9jNJ7w/NMnAABgCVJ0qzNuIoz4tdX49wjj/W1ejQjlj2XEPbwiBsUnFSTuUc2NSt7a1UWNooX4V3WaQcflUbPS+Q9T1XRcBwcHPij9jluM8akOH7ho2H4HpB4UNXvWj3348P1idMEpVm16GBqVD6S1MgAAGE+KbnXGTYQSETCnlBBpzCURoXyfKUoiBhXyhNFVJ7KUV7u6qOH6BWVK56qcN9W3bOc/TP1O66flU62FCJq5s47W90d967EQ733MFXcNAQDAEqToVmf0RChKCfEa6+bmpvJHZBRxeR5KXNn38IoYpN0VL4oc1h+VxKtdXaSiXm4heBi+61lwhbyvGoMcpuJjzLNoufXmnwojFzYfjho99whF49k++cIVt582AACAJUrRrc4yEiEAAACWLEW3OiRCAACACUrRrQ6JEAAAYIJSdKtDIgQAAJigFN3qTCER8uWGY2BWB8eUjoFZHRxTOjimdAzMao0U3epwjxAAAGCCUnSrQyIEAACYoBTd6pAIAQAAJihFtzokQgAAgAlK0a0OiRAAAGCCUnSrQyIEAACYoBTd6pAIAQAAJihFtzokQgAAgAlK0a0OiRAAAGCCUnSrQyIEAACYoBTd6kwhEfJVNmNgVgfHlI6BWR0cUzo4pnQMzGqNFN3qcI8QAABgglJ0q3PmRAgAAICJIRECAACsOxIhAADAuiMRAgAArDsSIQAAwLojEQIAAKw7EiEAAMC6IxECAACsOxIhAADAuptCIrx0iVw7PGZ1cEzpGJjVwTGlg2NKx8CsDo4JBQAAWHckQgAAgHVHIgQAAFh3JEIAAIB1RyIEAABYdyRCAACAdUciBAAAWHckQgAAgHVHIgQAAFh3JEIAAIB1RyIEAABYd32JcO6XBp6/gtBLjl4KK9KLXJSh0kuBXgr0kqOXAr0ULkovMsBQ0/8DAABgXZEIAQAA1h2JEAAAYN2RCAEAANYdiRAAAGDdkQgBAADWHYkQAABg3ZEIAQAA1h2JEAAAYN2RCAEAANbdFBJhzbe74KyY1cExpWNgVgfHlA6OKR0Dszo4JhQAAGDdkQgBAADWHYkQAABg3ZEIAQAA1h2JEAAAYN1dvER47733Xrp06VWvelVar9Czy0033aRNt912W1of3yte8Qr1qN9pfT28853v5HNh9XRa/vAP/3Bawdndd999Ot/uuuuutL4U53nU9ITw+te/Pq1kzvSHs2p/ZddlPF0zCWCu0f9c9Yyg54W0MnPOq52e5dXmmVro2UWF2rS0ZxB1dP4s6Ewp0ZSvf6HZhYNv84FwfSsun0Wb+RQtcLldtWuVeVRhgQDhU2uBHfutciLU8a7+FXelEmHNSdKVY/I/HDXef1as2l/ZdRlP10wCmItE2J4IVb7w04p27Bqejl3SykLUcjSujjzI4vqn58RiANranPa8xM/d0YJX8wdOq1F5GolQh68h6Vi86pPE89kvP3bvdaapqNF8sFZH5SxdX+dPhDrGsz4EXY9azUkydiJc4HB6qKmac+C6/NVfx0Q47CQDy0ciXGoiVLkOP60spPX5rrj++Xgj62j+1a/rRKEUD0TecnNO3Ka7WOBye12uDT3ywwk65JpBnvXYF7DKifBCWOAULfT8FXc5z6NWkwjn6qm8wOH0UFOtoy1cl796EiGwsNH/XPWMoOeFtDKTP2/qT0gVLJ6+WwuDSlT+yle+Uu1o4eUvf/nNN9+cts321TPCbNdrbxx0APIu0anG4zoqUTtaKJ5Bru18Qr24UJVT0clznJ/vImNpWSV5NfXiTZZKZ2JO0vpMNKVOxU0VY3NhWjlRXP+KgWkXNxIL5i7SSvZM6umK3UNUKLprcgXzkXpI3irq2lslFTWeyrUpunBNyQecik4XajmV9l6K1FHx6Eh+XNqqMeu3m8pnJqhCMRV5hbz9ojXPiXlmLNrJHxp1rU3Fw9Hab75sMZ+thbnW4xUXegwekle1EGOY7XGNCuORzXvpOkYfpgpVOZo1lWtrWjmRtxMT4rFZ7HKmx8XlUVnysyjqt3aU8+FEta7BqNwVzNV8+NGvRuXKHp6X3b6X3WZOJa4cBxsjbz2cXNo2ExOr7szlWnC5Vy0K8y5aBy9dE+hqIR6UtPnk4YuBhbzTVJSdn5Y2Z88S8XC4XFQYh5nvm9eJco0tRig9k9y6O7DKvveHNBL9MeiPJ63M6G/Pf5z+yyz+zv2s4eXWJ4L8z8xU6C4UDVPRifwv0536UyaF5p+rKueFWvXuovL8WcDl+h3Pcargwqa8muRda0GrPlg/PeUDyF0b8eln9niO86o2xQDySc5HLvFASN57PNl5U4jBF90VvDUedLfjNl2iRmKr2owxaGz5IUcXqu9+c9oalWNgajY/wB6qH/3mYuRqJwbg8yc/ojj2fCpcLTap/RiMW/uhH/ohLXsqYqrj0PwQeDkfXv7QhOIhcNdeVl8xVCsGpuWignQdr0ebz5VqeuY9BolyLXtT3mPPMUZ90YJa8HJxdOaReB60yUOK3U0V3FfeQj4YaT4uRUemlvOjzkcu0VEuPyIPwHOYD8ZHca326Uc5H0l+pD31847yHfM6McjicHLaxU2JD/PP/Jk/o+WuwxE1FbuIVqNxjSRq5oN3y14WLXtsXZOjheguP/CQd6rG88c0xqZGYlmV8x7F5Z55V/PgPZh8WbScH1R03TPJ2hSHoF28gAExq4MbfULjDynEn3fxLGP5X5Hkf97mP1SVa3etvupVr9Kqfl+9elUL4r9hbX35y1/uVe/iTtWall1fdVrvEYoqR6HH6e5i1b2IljUY/faqFM8LOZXnTx/a0cumRnzsrc+AOY9BPMhYtehC8sEUI1c115d8JBqDStJKJgZftFNoHpd0tZlX1oIPx6ILdVo0qNZaB+wFDc/lPbpmWLurES0Ug8kfuBiY5FOR1xEVxmDy1rpmL6/fNbxQNOJ9vay+8mGIVvMSLTcb7zre5gMXNYsxqDBvVtU8k7meY8xb047a3eUhhpTTLnkvGoN3zFsrdszHUBx1rjicro5yxRFF4/lgVCcGkx9mPpJiKrTs8mjfFXwIon09tryyRH0pDic0D0QtuLV8d8lHqPJYzufTtNXHmI8nmrXoV4UxgPy48t7jAEMxA171jMU485YlBpNXFlUuDtN9aQA+CovxRDsW5dJsKm8BWH3fO7NH0vxjvvZ3dvJ34j9OiT8kr+biqcf8BBT1Y7UoFy2rROX5JrWm5WjTdYouROVR6N0LKvRWP0HkLWg5H0ZO5XHszWrxXKY6XS3kVFlda6F4jsupzWvDzcQA8l7ych9RPNuGGF5Pd9J6+MXTqJaDmnVhtG/aFF1obK7sEh94wTXdkeRNNanB6Dfkx1UMRvXFy1FH8l101PkuPa3lLWgvrQZPu/rqPwGKh0ALWvWyqLtZY6mk6EKajXcdb/HASdQsxqDCvFlV075erjxGrbpTLeSDsdZCtRYDkBhtPrZix3xTcdS54nC6OsoVRxT95j2qRJ3Otl+rEPWLkUT9vKO8fRV6elWttbLkh1AcTmiWx0i6DqdY9gC8bLFjPp4YpMUm7+5TQm1G/Shvti8uLLj9GL9bK6g8fzhcLT9M7e6JVaF3Cc2Dknz3oilRa943rQOrbfQzVX8hfpYPxXOfqdDV4g+yi58LVM1PIr5HqH39dy7+U7/33nt9j1AL3sV/q36a0F5a1i4L3CPMeZN6zys0nxdCPhuqpqPwsqkRH7vqdLWQi+cmDyOe44IPPB95/nSW9+Jy13RrxaOQN9XVnTWPS/J+tTXmNq+cz7k0u4hBaqHZRa71EHLRVFqfyQeTD1LyBy4fWD4VeR3JZ6xoLXbJH4K8fs0JkA/D+3o5qBEfjhbEhV26jjd/4Cxq5scuKszHrGqef7VTeYyxNerkYkg51cwfZY3Bh5yPrdgxH0Nx1LnicLo6yhVHpGU3ng9GJVq2vIViJNrq+vn85+3PGkhiYHllyQ8hX86pvDiQaLDrcIrlfD5NWz3h+XjycUr0691D0Y6qqSm3lvOU5pVDzKS6Kw7N8odDVDk/TO0Sh9/sV/KDknz3oqmgdlpHAqyaU8/1Y/DfT/7n1/qX7D9+Lcz94ymeQcztq5G0fsJ/n94lXy6465wq508HGlLrs0NU04K4UK11HULUFz8xRdeeGS+rTrSW0y55y7M+r1UrnuNCsx3XjKe8fGt+jB5MNOi9ipE3u7O8C/GA86dRLcRRa6sriNqPZQ2s2YUfOy0UXbSK3dVUNJtzF2mlcaJql1h1v7FJy9F1PhVFC2pfvKzW4pAlquV1dPgqV4NejnI/Fi7Pqc14RFRBvBy0oxvxwJot5LqO1/vOqiRxLPmxS3RnquZZunaE844xaC9plkt+FPrtOm5wtv0aLTfHVv+45FSurWmlu6NccURabg5GhZ6WQjGSYvAujPa1KR9byCuLGozxFIcTPLboWgvN7iwOx8va6mVRy1FTY+safD626FS/86Zy2l0tR2sFbWrdUeVu2YfWnO384RBVzg9Tu3sXD16VXR7yg5J8dy1rdy/noo4npzkkYEV878wej/+EQio9XZ7/Tfq5IxR/k/6j8t+YFl7+8pdr2ZuuXr2qfX1rUL+1rJLYJbpQv66jkttuu00Lze8s8S4STzp+bjL/2atfLXtr8cQ6q3XqHoCpx/xZLHqxVNp4Ls65U4s6xXNc0ABiSEF7eceil/xwpHjUfPhuzd3lWh8j89OfW2tuVYP5LKXS2V4q9xG5a4tjLMbgWdXvtJ49FjrGvItcXl/yo9AuHps3+SjME+XCYuZjk+Rz69bSSna997J5X48hf2jy8lw+jV5WYTEtrime/5AfjnUdr3f0ssWxNI+9OORoZNbkNV3HGFyhOTzzVosJUSOpKHvQm2NzBel5XAqurzpebe0oVxyRll0tH4yXQzRejESbXD+f/7z94tT1jBUPlhrMx+Oa0WPwyRNSaffhSOyiOi7xqsW0F+NRC64g+cFqSKl0Jh5Z0WpzwCHfMappIRovZtujbZ4b+WFq9zj9PP5wpkkuuvZWz1u0D6ya753ZwFx6ppO0Mmk6zPyiNXkrcrzF5XZ6NM95IFhs2tVC/md4oSdNKS1ipWi5yGdr9WcIXF8kQqDFul2KVuR4lQbyfDA9im5xd0oWu2OkRyqPTVrNA+LFogPJT7z8BPAdtfyWIYBRkQiBFiTC5Stezpskp5yw8JwrOaUmZlLpxZSOYSZPusX9QgBjIxECAACsOxIhAADAuiMRAgAArLspJMJLk/5w4vXCrA6OKR0Dszo4pnRwTOkYmNXBMaEAAADrjkQIAACw7kiEAAAA645ECAAAsO5IhAAAAOuORAgAALDuSIQAAADrjkQIAACw7kiEAAAA645ECAAAsO6mkAj5KpsxMKuDY0rHwKwOjikdHFM6BmZ1cEwoAADAuiMRAgAArDsSIQAAwLojEQIAAKy3l176/wPCB86ibuNSCwAAAABJRU5ErkJggg==;" parent="1" vertex="1">
          <mxGeometry x="1180" y="-1120" width="380.71" height="398" as="geometry" />
        </mxCell>
        <mxCell id="wAYI1A4frrbEOui3LJji-75" value="" style="endArrow=block;html=1;rounded=0;fontFamily=Helvetica;fontSize=16;fontColor=default;startSize=8;endSize=8;endFill=1;exitX=1;exitY=0.5;exitDx=0;exitDy=0;entryX=0;entryY=0.5;entryDx=0;entryDy=0;" parent="1" target="wAYI1A4frrbEOui3LJji-49" edge="1">
          <mxGeometry width="50" height="50" relative="1" as="geometry">
            <mxPoint x="180" y="-660.37" as="sourcePoint" />
            <mxPoint x="240" y="-660.37" as="targetPoint" />
          </mxGeometry>
        </mxCell>
        <mxCell id="R7EmOhuITo8-wfxHcTlq-1" value="" style="rounded=0;whiteSpace=wrap;html=1;fontSize=16;" parent="1" vertex="1">
          <mxGeometry x="960" y="-1160" width="120" height="60" as="geometry" />
        </mxCell>
      </root>
    </mxGraphModel>
  </diagram>
  <diagram id="mI0-0WY5OuOx3tQaif1Z" name="Seite-2">
    <mxGraphModel dx="2058" dy="1238" grid="1" gridSize="10" guides="1" tooltips="1" connect="1" arrows="1" fold="1" page="1" pageScale="1" pageWidth="827" pageHeight="1169" math="0" shadow="0">
      <root>
        <mxCell id="0" />
        <mxCell id="1" parent="0" />
      </root>
    </mxGraphModel>
  </diagram>
</mxfile>
